<?xml version="1.0" encoding="utf-8"?>
<!-- Generator: Adobe Illustrator 26.0.2, SVG Export Plug-In . SVG Version: 6.00 Build 0)  -->
<svg version="1.1" id="Layer_1" xmlns="http://www.w3.org/2000/svg" xmlns:xlink="http://www.w3.org/1999/xlink" x="0px" y="0px"
	 viewBox="0 0 1440 175" style="enable-background:new 0 0 1440 175;" xml:space="preserve">
<style type="text/css">
	.st0{fill:none;stroke:#F1EEEA;stroke-width:2;stroke-miterlimit:10;}
</style>
<path class="st0" d="M1059,177.5c0-0.8-0.7-1.5-1.5-1.5H955c-0.8,0-1.5,0.7-1.5,1.5 M838.9,177.5c0-0.8,0.7-1.5,1.5-1.5h29.8
	 M944.4,177.5c0-0.8-0.7-1.5-1.5-1.5h-45.1c-0.8,0-1.5,0.7-1.5,1.5 M1288.2,177.5c0-0.8-0.7-1.5-1.5-1.5h-102.4
	c-0.8,0-1.5,0.7-1.5,1.5 M1068.1,177.5c0-0.8,0.7-1.5,1.5-1.5h29.8 M1173.6,177.5c0-0.8-0.7-1.5-1.5-1.5H1127
	c-0.8,0-1.5,0.7-1.5,1.5 M1517.4,177.5c0-0.8-0.7-1.5-1.5-1.5h-102.4c-0.8,0-1.5,0.7-1.5,1.5 M1297.4,177.5c0-0.8,0.7-1.5,1.5-1.5
	h29.8 M1402.8,177.5c0-0.8-0.7-1.5-1.5-1.5h-45.1c-0.8,0-1.5,0.7-1.5,1.5 M1746.7,177.5c0-0.8-0.7-1.5-1.5-1.5h-102.4
	c-0.8,0-1.5,0.7-1.5,1.5 M1526.6,177.5c0-0.8,0.7-1.5,1.5-1.5h29.8 M1632.1,177.5c0-0.8-0.7-1.5-1.5-1.5h-45.1
	c-0.8,0-1.5,0.7-1.5,1.5 M1975.9,177.5c0-0.8-0.7-1.5-1.5-1.5H1872c-0.8,0-1.5,0.7-1.5,1.5 M1755.8,177.5c0-0.8,0.7-1.5,1.5-1.5
	h29.9 M1861.3,177.5c0-0.8-0.7-1.5-1.5-1.5h-45.1c-0.8,0-1.5,0.7-1.5,1.5 M-87.4,177.5c0-0.8-0.7-1.5-1.5-1.5h-102.4
	c-0.8,0-1.5,0.7-1.5,1.5 M-307.5,177.5c0-0.8,0.7-1.5,1.5-1.5h29.8 M-202,177.5c0-0.8-0.7-1.5-1.5-1.5h-45.1c-0.8,0-1.5,0.7-1.5,1.5
	 M141.8,177.5c0-0.8-0.7-1.5-1.5-1.5H37.9c-0.8,0-1.5,0.7-1.5,1.5 M-78.2,177.5c0-0.8,0.7-1.5,1.5-1.5h29.8 M27.2,177.5
	c0-0.8-0.7-1.5-1.5-1.5h-45.1c-0.8,0-1.5,0.7-1.5,1.5 M371.1,177.5c0-0.8-0.7-1.5-1.5-1.5H267.1c-0.8,0-1.5,0.7-1.5,1.5 M151,177.5
	c0-0.8,0.7-1.5,1.5-1.5h29.8 M256.4,177.5c0-0.8-0.7-1.5-1.5-1.5h-45.1c-0.8,0-1.5,0.7-1.5,1.5 M600.3,177.5c0-0.8-0.7-1.5-1.5-1.5
	H496.4c-0.8,0-1.5,0.7-1.5,1.5 M380.2,177.5c0-0.8,0.7-1.5,1.5-1.5h29.8 M485.7,177.5c0-0.8-0.7-1.5-1.5-1.5h-45.1
	c-0.8,0-1.5,0.7-1.5,1.5 M829.5,177.5c0-0.8-0.7-1.5-1.5-1.5H725.6c-0.8,0-1.5,0.7-1.5,1.5 M609.4,177.5c0-0.8,0.7-1.5,1.5-1.5h29.8
	 M714.9,177.5c0-0.8-0.7-1.5-1.5-1.5h-45.1c-0.8,0-1.5,0.7-1.5,1.5 M1698.5,108.2V78.4c0-9.2,7.5-16.8,16.8-16.8h29.8
	c0.8,0,1.5,0.7,1.5,1.5v45c0,0.8-0.6,1.5-1.4,1.5H1700C1699.2,109.7,1698.5,109,1698.5,108.2z M1641.2,165.4v-29.8
	c0-9.2,7.5-16.8,16.8-16.8h87.2c0.8,0,1.5,0.7,1.5,1.5v45c0,0.8-0.7,1.5-1.5,1.5h-102.4C1641.9,166.9,1641.2,166.2,1641.2,165.4z
	 M1813.1,120.3c0-0.8,0.7-1.5,1.5-1.5h29.8c9.2,0,16.8,7.5,16.8,16.8v29.8c0,0.8-0.7,1.5-1.5,1.5h-29.8c-9.2,0-16.8-7.5-16.8-16.8
	V120.3z M1755.8,165.4V63.2c0-0.8,0.7-1.5,1.5-1.5h29.8c9.2,0,16.8,7.5,16.8,16.8v87c0,0.8-0.7,1.5-1.5,1.5h-45.1
	C1756.5,166.9,1755.8,166.2,1755.8,165.4z M1469.3,108.2V78.4c0-9.2,7.5-16.8,16.8-16.8h29.8c0.8,0,1.5,0.7,1.5,1.5v45
	c0,0.8-0.6,1.5-1.5,1.5h-45.2C1470,109.7,1469.3,109,1469.3,108.2z M1412,165.4v-29.8c0-9.2,7.5-16.8,16.8-16.8h87.2
	c0.8,0,1.5,0.7,1.5,1.5v45c0,0.8-0.7,1.5-1.5,1.5h-102.4C1412.6,166.9,1412,166.2,1412,165.4z M1583.9,120.3c0-0.8,0.7-1.5,1.5-1.5
	h29.8c9.2,0,16.8,7.5,16.8,16.8v29.8c0,0.8-0.7,1.5-1.5,1.5h-29.8c-9.3,0-16.8-7.5-16.8-16.8V120.3z M1526.6,165.4V63.2
	c0-0.8,0.7-1.5,1.5-1.5h29.9c9.2,0,16.8,7.5,16.8,16.8v87c0,0.8-0.7,1.5-1.5,1.5h-45.1C1527.3,166.9,1526.6,166.2,1526.6,165.4z
	 M1240,108.2V78.4c0-9.2,7.5-16.8,16.8-16.8h29.8c0.8,0,1.5,0.7,1.5,1.5v45c0,0.8-0.6,1.5-1.5,1.5h-45.2
	C1240.7,109.7,1240,109,1240,108.2z M1182.7,165.4v-29.8c0-9.2,7.5-16.8,16.8-16.8h87.2c0.8,0,1.5,0.7,1.5,1.5v45
	c0,0.8-0.7,1.5-1.5,1.5h-102.4C1183.4,166.9,1182.7,166.2,1182.7,165.4z M1354.7,120.3c0-0.8,0.7-1.5,1.5-1.5h29.8
	c9.2,0,16.8,7.5,16.8,16.8v29.8c0,0.8-0.7,1.5-1.5,1.5h-29.8c-9.2,0-16.8-7.5-16.8-16.8V120.3z M1297.4,165.4V63.2
	c0-0.8,0.7-1.5,1.5-1.5h29.8c9.2,0,16.8,7.5,16.8,16.8v87c0,0.8-0.7,1.5-1.5,1.5h-45.1C1298,166.9,1297.4,166.2,1297.4,165.4z
	 M1010.8,108.2V78.4c0-9.2,7.5-16.8,16.8-16.8h29.8c0.8,0,1.5,0.7,1.5,1.5v45c0,0.8-0.6,1.5-1.4,1.5h-45.2
	C1011.5,109.7,1010.8,109,1010.8,108.2z M953.5,165.4v-29.8c0-9.2,7.5-16.8,16.8-16.8h87.1c0.8,0,1.5,0.7,1.5,1.5v45
	c0,0.8-0.7,1.5-1.5,1.5H955C954.2,166.9,953.5,166.2,953.5,165.4z M1125.4,120.3c0-0.8,0.7-1.5,1.5-1.5h29.8
	c9.2,0,16.8,7.5,16.8,16.8v29.8c0,0.8-0.7,1.5-1.5,1.5h-29.8c-9.2,0-16.8-7.5-16.8-16.8V120.3z M1068.1,165.4V63.2
	c0-0.8,0.7-1.5,1.5-1.5h29.8c9.2,0,16.8,7.5,16.8,16.8v87c0,0.8-0.7,1.5-1.5,1.5h-45.1C1068.8,166.9,1068.1,166.2,1068.1,165.4z
	 M781.6,108.2V78.4c0-9.2,7.5-16.8,16.8-16.8h29.8c0.8,0,1.5,0.7,1.5,1.5v45c0,0.8-0.6,1.5-1.5,1.5h-45.2
	C782.3,109.7,781.6,109,781.6,108.2z M724.3,165.4v-29.8c0-9.2,7.5-16.8,16.8-16.8h87.2c0.8,0,1.5,0.7,1.5,1.5v45
	c0,0.8-0.7,1.5-1.5,1.5H725.8C725,166.9,724.3,166.2,724.3,165.4z M896.2,120.3c0-0.8,0.7-1.5,1.5-1.5h29.8
	c9.3,0,16.8,7.5,16.8,16.8v29.8c0,0.8-0.7,1.5-1.5,1.5H913c-9.3,0-16.8-7.5-16.8-16.8V120.3z M838.9,165.4V63.2
	c0-0.8,0.7-1.5,1.5-1.5h29.8c9.3,0,16.8,7.5,16.8,16.8v87c0,0.8-0.7,1.5-1.5,1.5h-45.1C839.6,166.9,838.9,166.2,838.9,165.4z
	 M1698.5-63.4v-29.8c0-9.2,7.5-16.8,16.8-16.8h29.8c0.8,0,1.5,0.7,1.5,1.5v45c0,0.8-0.6,1.5-1.4,1.5H1700
	C1699.2-61.9,1698.5-62.6,1698.5-63.4z M1641.2-6.2V-36c0-9.2,7.5-16.8,16.8-16.8l87.2,0c0.8,0,1.5,0.7,1.5,1.5v45
	c0,0.8-0.7,1.5-1.5,1.5h-102.4C1641.9-4.7,1641.2-5.4,1641.2-6.2z M1813.1-51.2c0-0.8,0.7-1.5,1.5-1.5h29.8
	c9.2,0,16.8,7.5,16.8,16.8v29.8c0,0.8-0.7,1.5-1.5,1.5h-29.8c-9.2,0-16.8-7.5-16.8-16.8V-51.2z M1755.8-6.2v-102.2
	c0-0.8,0.7-1.5,1.5-1.5h29.8c9.2,0,16.8,7.5,16.8,16.8v87c0,0.8-0.7,1.5-1.5,1.5h-45.1C1756.5-4.7,1755.8-5.4,1755.8-6.2z
	 M1469.3-63.4v-29.8c0-9.2,7.5-16.8,16.8-16.8h29.8c0.8,0,1.5,0.7,1.5,1.5v45c0,0.8-0.6,1.5-1.5,1.5h-45.2
	C1470-61.9,1469.3-62.6,1469.3-63.4z M1412-6.2V-36c0-9.2,7.5-16.8,16.8-16.8h87.2c0.8,0,1.5,0.7,1.5,1.5v45c0,0.8-0.7,1.5-1.5,1.5
	h-102.4C1412.6-4.7,1412-5.4,1412-6.2z M1583.9-51.2c0-0.8,0.7-1.5,1.5-1.5h29.8c9.2,0,16.8,7.5,16.8,16.8v29.8
	c0,0.8-0.7,1.5-1.5,1.5h-29.8c-9.3,0-16.8-7.5-16.8-16.8V-51.2z M1526.6-6.2v-102.2c0-0.8,0.7-1.5,1.5-1.5h29.9
	c9.2,0,16.8,7.5,16.8,16.8v87c0,0.8-0.7,1.5-1.5,1.5h-45.1C1527.3-4.7,1526.6-5.4,1526.6-6.2z M1240-63.4v-29.8
	c0-9.2,7.5-16.8,16.8-16.8h29.8c0.8,0,1.5,0.7,1.5,1.5v45c0,0.8-0.6,1.5-1.5,1.5h-45.2C1240.7-61.9,1240-62.6,1240-63.4z
	 M1182.7-6.2V-36c0-9.2,7.5-16.8,16.8-16.8h87.2c0.8,0,1.5,0.7,1.5,1.5v45c0,0.8-0.7,1.5-1.5,1.5h-102.4
	C1183.4-4.7,1182.7-5.4,1182.7-6.2z M1354.7-51.2c0-0.8,0.7-1.5,1.5-1.5h29.8c9.2,0,16.8,7.5,16.8,16.8v29.8c0,0.8-0.7,1.5-1.5,1.5
	h-29.8c-9.2,0-16.8-7.5-16.8-16.8V-51.2z M1297.4-6.2v-102.2c0-0.8,0.7-1.5,1.5-1.5h29.8c9.2,0,16.8,7.5,16.8,16.8v87
	c0,0.8-0.7,1.5-1.5,1.5h-45.1C1298-4.7,1297.4-5.4,1297.4-6.2z M1010.8-63.4v-29.8c0-9.2,7.5-16.8,16.8-16.8h29.8
	c0.8,0,1.5,0.7,1.5,1.5v45c0,0.8-0.6,1.5-1.4,1.5h-45.2C1011.5-61.9,1010.8-62.6,1010.8-63.4z M953.5-6.2V-36
	c0-9.2,7.5-16.8,16.8-16.8l87.1,0c0.8,0,1.5,0.7,1.5,1.5v45c0,0.8-0.7,1.5-1.5,1.5H955C954.2-4.7,953.5-5.4,953.5-6.2z M1125.4-51.2
	c0-0.8,0.7-1.5,1.5-1.5h29.8c9.2,0,16.8,7.5,16.8,16.8v29.8c0,0.8-0.7,1.5-1.5,1.5h-29.8c-9.2,0-16.8-7.5-16.8-16.8V-51.2z
	 M1068.1-6.2v-102.2c0-0.8,0.7-1.5,1.5-1.5h29.8c9.2,0,16.8,7.5,16.8,16.8v87c0,0.8-0.7,1.5-1.5,1.5h-45.1
	C1068.8-4.7,1068.1-5.4,1068.1-6.2z M781.6-63.4v-29.8c0-9.2,7.5-16.8,16.8-16.8h29.8c0.8,0,1.5,0.7,1.5,1.5v45
	c0,0.8-0.6,1.5-1.5,1.5h-45.2C782.3-61.9,781.6-62.6,781.6-63.4z M724.3-6.2V-36c0-9.2,7.5-16.8,16.8-16.8h87.2
	c0.8,0,1.5,0.7,1.5,1.5v45c0,0.8-0.7,1.5-1.5,1.5H725.8C725-4.7,724.3-5.4,724.3-6.2z M896.2-51.2c0-0.8,0.7-1.5,1.5-1.5h29.8
	c9.3,0,16.8,7.5,16.8,16.8v29.8c0,0.8-0.7,1.5-1.5,1.5H913c-9.3,0-16.8-7.5-16.8-16.8V-51.2z M838.9-6.2v-102.2
	c0-0.8,0.7-1.5,1.5-1.5l29.8,0c9.3,0,16.8,7.5,16.8,16.8v87c0,0.8-0.7,1.5-1.5,1.5h-45.1C839.6-4.7,838.9-5.4,838.9-6.2z
	 M1698.5-235v-29.8c0-9.2,7.5-16.8,16.8-16.8h29.8c0.8,0,1.5,0.7,1.5,1.5v45c0,0.8-0.6,1.5-1.4,1.5H1700
	C1699.2-233.5,1698.5-234.2,1698.5-235z M1641.2-177.8v-29.8c0-9.2,7.5-16.8,16.8-16.8h87.2c0.8,0,1.5,0.7,1.5,1.5v45
	c0,0.8-0.7,1.5-1.5,1.5h-102.4C1641.9-176.3,1641.2-177,1641.2-177.8z M1813.1-222.8c0-0.8,0.7-1.5,1.5-1.5h29.8
	c9.2,0,16.8,7.5,16.8,16.8v29.8c0,0.8-0.7,1.5-1.5,1.5h-29.8c-9.2,0-16.8-7.5-16.8-16.8V-222.8z M1755.8-177.8V-280
	c0-0.8,0.7-1.5,1.5-1.5h29.8c9.2,0,16.8,7.5,16.8,16.8v87c0,0.8-0.7,1.5-1.5,1.5h-45.1C1756.5-176.3,1755.8-177,1755.8-177.8z
	 M1469.3-235v-29.8c0-9.2,7.5-16.8,16.8-16.8h29.8c0.8,0,1.5,0.7,1.5,1.5v45c0,0.8-0.6,1.5-1.5,1.5h-45.2
	C1470-233.5,1469.3-234.2,1469.3-235z M1412-177.8v-29.8c0-9.2,7.5-16.8,16.8-16.8h87.2c0.8,0,1.5,0.7,1.5,1.5v45
	c0,0.8-0.7,1.5-1.5,1.5h-102.4C1412.6-176.3,1412-177,1412-177.8z M1583.9-222.8c0-0.8,0.7-1.5,1.5-1.5h29.8
	c9.2,0,16.8,7.5,16.8,16.8v29.8c0,0.8-0.7,1.5-1.5,1.5h-29.8c-9.3,0-16.8-7.5-16.8-16.8V-222.8z M1526.6-177.8V-280
	c0-0.8,0.7-1.5,1.5-1.5h29.9c9.2,0,16.8,7.5,16.8,16.8v87c0,0.8-0.7,1.5-1.5,1.5h-45.1C1527.3-176.3,1526.6-177,1526.6-177.8z
	 M1240-235v-29.8c0-9.2,7.5-16.8,16.8-16.8h29.8c0.8,0,1.5,0.7,1.5,1.5v45c0,0.8-0.6,1.5-1.5,1.5h-45.2
	C1240.7-233.5,1240-234.2,1240-235z M1182.7-177.8v-29.8c0-9.2,7.5-16.8,16.8-16.8h87.2c0.8,0,1.5,0.7,1.5,1.5v45
	c0,0.8-0.7,1.5-1.5,1.5h-102.4C1183.4-176.3,1182.7-177,1182.7-177.8z M1354.7-222.8c0-0.8,0.7-1.5,1.5-1.5h29.8
	c9.2,0,16.8,7.5,16.8,16.8v29.8c0,0.8-0.7,1.5-1.5,1.5h-29.8c-9.2,0-16.8-7.5-16.8-16.8V-222.8z M1297.4-177.8V-280
	c0-0.8,0.7-1.5,1.5-1.5h29.8c9.2,0,16.8,7.5,16.8,16.8v87c0,0.8-0.7,1.5-1.5,1.5h-45.1C1298-176.3,1297.4-177,1297.4-177.8z
	 M1010.8-235v-29.8c0-9.2,7.5-16.8,16.8-16.8h29.8c0.8,0,1.5,0.7,1.5,1.5v45c0,0.8-0.6,1.5-1.4,1.5h-45.2
	C1011.5-233.5,1010.8-234.2,1010.8-235z M953.5-177.8v-29.8c0-9.2,7.5-16.8,16.8-16.8h87.1c0.8,0,1.5,0.7,1.5,1.5v45
	c0,0.8-0.7,1.5-1.5,1.5H955C954.2-176.3,953.5-177,953.5-177.8z M1125.4-222.8c0-0.8,0.7-1.5,1.5-1.5h29.8c9.2,0,16.8,7.5,16.8,16.8
	v29.8c0,0.8-0.7,1.5-1.5,1.5h-29.8c-9.2,0-16.8-7.5-16.8-16.8V-222.8z M1068.1-177.8V-280c0-0.8,0.7-1.5,1.5-1.5h29.8
	c9.2,0,16.8,7.5,16.8,16.8v87c0,0.8-0.7,1.5-1.5,1.5h-45.1C1068.8-176.3,1068.1-177,1068.1-177.8z M781.6-235v-29.8
	c0-9.2,7.5-16.8,16.8-16.8h29.8c0.8,0,1.5,0.7,1.5,1.5v45c0,0.8-0.6,1.5-1.5,1.5h-45.2C782.3-233.5,781.6-234.2,781.6-235z
	 M724.3-177.8v-29.8c0-9.2,7.5-16.8,16.8-16.8h87.2c0.8,0,1.5,0.7,1.5,1.5v45c0,0.8-0.7,1.5-1.5,1.5l-102.4,0
	C725-176.3,724.3-177,724.3-177.8z M896.2-222.8c0-0.8,0.7-1.5,1.5-1.5h29.8c9.3,0,16.8,7.5,16.8,16.8v29.8c0,0.8-0.7,1.5-1.5,1.5
	H913c-9.3,0-16.8-7.5-16.8-16.8V-222.8z M838.9-177.8V-280c0-0.8,0.7-1.5,1.5-1.5h29.8c9.3,0,16.8,7.5,16.8,16.8v87
	c0,0.8-0.7,1.5-1.5,1.5h-45.1C839.6-176.3,838.9-177,838.9-177.8z M1001.7,63.2v29.8c0,9.2-7.5,16.8-16.8,16.8H955
	c-0.8,0-1.5-0.7-1.5-1.5v-45c0-0.8,0.6-1.5,1.5-1.5h45.2C1001,61.6,1001.7,62.3,1001.7,63.2z M1059,6v29.8c0,9.2-7.5,16.8-16.8,16.8
	H955c-0.8,0-1.5-0.7-1.5-1.5V6c0-0.8,0.7-1.5,1.5-1.5l102.4,0C1058.3,4.4,1059,5.1,1059,6z M887.1,51c0,0.8-0.7,1.5-1.5,1.5h-29.8
	c-9.3,0-16.8-7.5-16.8-16.8V6c0-0.8,0.7-1.5,1.5-1.5h29.8c9.3,0,16.8,7.5,16.8,16.8V51z M944.4,6v102.2c0,0.8-0.7,1.5-1.5,1.5H913
	c-9.3,0-16.8-7.5-16.8-16.8V6c0-0.8,0.7-1.5,1.5-1.5h45.1C943.7,4.4,944.4,5.1,944.4,6z M1230.9,63.2v29.8c0,9.2-7.5,16.8-16.8,16.8
	h-29.8c-0.8,0-1.5-0.7-1.5-1.5v-45c0-0.8,0.7-1.5,1.5-1.5h45.2C1230.2,61.6,1230.9,62.3,1230.9,63.2z M1288.2,6v29.8
	c0,9.2-7.5,16.8-16.8,16.8h-87.2c-0.8,0-1.5-0.7-1.5-1.5V6c0-0.8,0.7-1.5,1.5-1.5h102.4C1287.5,4.4,1288.2,5.1,1288.2,6z M1116.3,51
	c0,0.8-0.7,1.5-1.5,1.5h-29.8c-9.2,0-16.8-7.5-16.8-16.8V6c0-0.8,0.7-1.5,1.5-1.5h29.8c9.2,0,16.8,7.5,16.8,16.8V51z M1173.6,6
	v102.2c0,0.8-0.7,1.5-1.5,1.5h-29.8c-9.3,0-16.8-7.5-16.8-16.8V6c0-0.8,0.7-1.5,1.5-1.5h45.1C1172.9,4.4,1173.6,5.1,1173.6,6z
	 M1460.1,63.2v29.8c0,9.2-7.5,16.8-16.8,16.8h-29.8c-0.8,0-1.5-0.7-1.5-1.5v-45c0-0.8,0.7-1.5,1.5-1.5h45.2
	C1459.4,61.6,1460.1,62.3,1460.1,63.2z M1517.4,6v29.8c0,9.2-7.5,16.8-16.8,16.8h-87.2c-0.8,0-1.5-0.7-1.5-1.5V6
	c0-0.8,0.7-1.5,1.5-1.5h102.4C1516.8,4.4,1517.4,5.1,1517.4,6z M1345.5,51c0,0.8-0.7,1.5-1.5,1.5h-29.8c-9.2,0-16.8-7.5-16.8-16.8V6
	c0-0.8,0.7-1.5,1.5-1.5h29.8c9.2,0,16.8,7.5,16.8,16.8V51z M1402.8,6v102.2c0,0.8-0.7,1.5-1.5,1.5h-29.8c-9.2,0-16.8-7.5-16.8-16.8
	V6c0-0.8,0.7-1.5,1.5-1.5h45.1C1402.1,4.4,1402.8,5.1,1402.8,6z M1689.4,63.2v29.8c0,9.2-7.5,16.8-16.8,16.8h-29.9
	c-0.8,0-1.5-0.7-1.5-1.5v-45c0-0.8,0.6-1.5,1.4-1.5h45.2C1688.7,61.6,1689.4,62.3,1689.4,63.2z M1746.7,6v29.8
	c0,9.2-7.5,16.8-16.8,16.8h-87.2c-0.8,0-1.5-0.7-1.5-1.5V6c0-0.8,0.7-1.5,1.5-1.5h102.4C1746,4.4,1746.7,5.1,1746.7,6z M1574.7,51
	c0,0.8-0.7,1.5-1.5,1.5h-29.8c-9.2,0-16.8-7.5-16.8-16.8V6c0-0.8,0.7-1.5,1.5-1.5h29.8c9.3,0,16.8,7.5,16.8,16.8V51z M1632.1,6
	v102.2c0,0.8-0.7,1.5-1.5,1.5h-29.8c-9.2,0-16.8-7.5-16.8-16.8V6c0-0.8,0.7-1.5,1.5-1.5h45.1C1631.4,4.4,1632.1,5.1,1632.1,6z
	 M1918.6,63.2v29.8c0,9.2-7.5,16.8-16.8,16.8H1872c-0.8,0-1.5-0.7-1.5-1.5v-45c0-0.8,0.6-1.5,1.4-1.5h45.2
	C1917.9,61.6,1918.6,62.3,1918.6,63.2L1918.6,63.2z M1975.9,6v29.8c0,9.2-7.5,16.8-16.8,16.8H1872c-0.8,0-1.5-0.7-1.5-1.5V6
	c0-0.8,0.7-1.5,1.5-1.5h102.4C1975.2,4.4,1975.9,5.1,1975.9,6z M1804,51c0,0.8-0.7,1.5-1.5,1.5h-29.8c-9.2,0-16.8-7.5-16.8-16.8V6
	c0-0.8,0.7-1.5,1.5-1.5h29.9c9.2,0,16.8,7.5,16.8,16.8V51z M1861.3,6v102.2c0,0.8-0.7,1.5-1.5,1.5h-29.8c-9.2,0-16.8-7.5-16.8-16.8
	V6c0-0.8,0.7-1.5,1.5-1.5h45.1C1860.6,4.4,1861.3,5.1,1861.3,6z M1001.7-108.4v29.8c0,9.2-7.5,16.8-16.8,16.8H955
	c-0.8,0-1.5-0.7-1.5-1.5v-45c0-0.8,0.6-1.5,1.5-1.5h45.2C1001-110,1001.7-109.3,1001.7-108.4z M1059-165.6v29.8
	c0,9.2-7.5,16.8-16.8,16.8H955c-0.8,0-1.5-0.7-1.5-1.5v-45c0-0.8,0.7-1.5,1.5-1.5h102.4C1058.3-167.2,1059-166.5,1059-165.6z
	 M887.1-120.6c0,0.8-0.7,1.5-1.5,1.5h-29.8c-9.3,0-16.8-7.5-16.8-16.8v-29.8c0-0.8,0.7-1.5,1.5-1.5h29.8c9.3,0,16.8,7.5,16.8,16.8
	V-120.6z M944.4-165.6v102.2c0,0.8-0.7,1.5-1.5,1.5H913c-9.3,0-16.8-7.5-16.8-16.8v-87c0-0.8,0.7-1.5,1.5-1.5h45.1
	C943.7-167.2,944.4-166.5,944.4-165.6z M1230.9-108.4v29.8c0,9.2-7.5,16.8-16.8,16.8h-29.8c-0.8,0-1.5-0.7-1.5-1.5v-45
	c0-0.8,0.7-1.5,1.5-1.5h45.2C1230.2-110,1230.9-109.3,1230.9-108.4z M1288.2-165.6v29.8c0,9.2-7.5,16.8-16.8,16.8h-87.2
	c-0.8,0-1.5-0.7-1.5-1.5v-45c0-0.8,0.7-1.5,1.5-1.5h102.4C1287.5-167.2,1288.2-166.5,1288.2-165.6z M1116.3-120.6
	c0,0.8-0.7,1.5-1.5,1.5h-29.8c-9.2,0-16.8-7.5-16.8-16.8v-29.8c0-0.8,0.7-1.5,1.5-1.5h29.8c9.2,0,16.8,7.5,16.8,16.8V-120.6z
	 M1173.6-165.6v102.2c0,0.8-0.7,1.5-1.5,1.5h-29.8c-9.3,0-16.8-7.5-16.8-16.8v-87c0-0.8,0.7-1.5,1.5-1.5h45.1
	C1172.9-167.2,1173.6-166.5,1173.6-165.6z M1460.1-108.4v29.8c0,9.2-7.5,16.8-16.8,16.8h-29.8c-0.8,0-1.5-0.7-1.5-1.5v-45
	c0-0.8,0.7-1.5,1.5-1.5h45.2C1459.4-110,1460.1-109.3,1460.1-108.4z M1517.4-165.6v29.8c0,9.2-7.5,16.8-16.8,16.8h-87.2
	c-0.8,0-1.5-0.7-1.5-1.5v-45c0-0.8,0.7-1.5,1.5-1.5h102.4C1516.8-167.2,1517.4-166.5,1517.4-165.6z M1345.5-120.6
	c0,0.8-0.7,1.5-1.5,1.5h-29.8c-9.2,0-16.8-7.5-16.8-16.8v-29.8c0-0.8,0.7-1.5,1.5-1.5h29.8c9.2,0,16.8,7.5,16.8,16.8V-120.6z
	 M1402.8-165.6v102.2c0,0.8-0.7,1.5-1.5,1.5h-29.8c-9.2,0-16.8-7.5-16.8-16.8v-87c0-0.8,0.7-1.5,1.5-1.5h45.1
	C1402.1-167.2,1402.8-166.5,1402.8-165.6z M1689.4-108.4v29.8c0,9.2-7.5,16.8-16.8,16.8h-29.9c-0.8,0-1.5-0.7-1.5-1.5v-45
	c0-0.8,0.6-1.5,1.4-1.5h45.2C1688.7-110,1689.4-109.3,1689.4-108.4z M1746.7-165.6v29.8c0,9.2-7.5,16.8-16.8,16.8h-87.2
	c-0.8,0-1.5-0.7-1.5-1.5v-45c0-0.8,0.7-1.5,1.5-1.5h102.4C1746-167.2,1746.7-166.5,1746.7-165.6z M1574.7-120.6
	c0,0.8-0.7,1.5-1.5,1.5h-29.8c-9.2,0-16.8-7.5-16.8-16.8v-29.8c0-0.8,0.7-1.5,1.5-1.5h29.8c9.3,0,16.8,7.5,16.8,16.8V-120.6z
	 M1632.1-165.6v102.2c0,0.8-0.7,1.5-1.5,1.5h-29.8c-9.2,0-16.8-7.5-16.8-16.8v-87c0-0.8,0.7-1.5,1.5-1.5h45.1
	C1631.4-167.2,1632.1-166.5,1632.1-165.6z M1918.6-108.4v29.8c0,9.2-7.5,16.8-16.8,16.8H1872c-0.8,0-1.5-0.7-1.5-1.5v-45
	c0-0.8,0.6-1.5,1.4-1.5l45.2,0C1917.9-110,1918.6-109.3,1918.6-108.4L1918.6-108.4z M1975.9-165.6v29.8c0,9.2-7.5,16.8-16.8,16.8
	H1872c-0.8,0-1.5-0.7-1.5-1.5v-45c0-0.8,0.7-1.5,1.5-1.5h102.4C1975.2-167.2,1975.9-166.5,1975.9-165.6z M1804-120.6
	c0,0.8-0.7,1.5-1.5,1.5h-29.8c-9.2,0-16.8-7.5-16.8-16.8v-29.8c0-0.8,0.7-1.5,1.5-1.5h29.9c9.2,0,16.8,7.5,16.8,16.8V-120.6z
	 M1861.3-165.6v102.2c0,0.8-0.7,1.5-1.5,1.5h-29.8c-9.2,0-16.8-7.5-16.8-16.8v-87c0-0.8,0.7-1.5,1.5-1.5h45.1
	C1860.6-167.2,1861.3-166.5,1861.3-165.6z M1001.7-280v29.8c0,9.2-7.5,16.8-16.8,16.8H955c-0.8,0-1.5-0.7-1.5-1.5v-45
	c0-0.8,0.6-1.5,1.5-1.5h45.2C1001-281.5,1001.7-280.9,1001.7-280z M1059-337.2v29.8c0,9.2-7.5,16.8-16.8,16.8H955
	c-0.8,0-1.5-0.7-1.5-1.5v-45c0-0.8,0.7-1.5,1.5-1.5h102.4C1058.3-338.7,1059-338.1,1059-337.2z M887.1-292.2c0,0.8-0.7,1.5-1.5,1.5
	h-29.8c-9.3,0-16.8-7.5-16.8-16.8v-29.8c0-0.8,0.7-1.5,1.5-1.5h29.8c9.3,0,16.8,7.5,16.8,16.8V-292.2z M944.4-337.2V-235
	c0,0.8-0.7,1.5-1.5,1.5H913c-9.3,0-16.8-7.5-16.8-16.8v-87c0-0.8,0.7-1.5,1.5-1.5h45.1C943.7-338.7,944.4-338.1,944.4-337.2z
	 M1230.9-280v29.8c0,9.2-7.5,16.8-16.8,16.8h-29.8c-0.8,0-1.5-0.7-1.5-1.5v-45c0-0.8,0.7-1.5,1.5-1.5h45.2
	C1230.2-281.5,1230.9-280.9,1230.9-280z M1288.2-337.2v29.8c0,9.2-7.5,16.8-16.8,16.8h-87.2c-0.8,0-1.5-0.7-1.5-1.5v-45
	c0-0.8,0.7-1.5,1.5-1.5h102.4C1287.5-338.7,1288.2-338.1,1288.2-337.2z M1116.3-292.2c0,0.8-0.7,1.5-1.5,1.5h-29.8
	c-9.2,0-16.8-7.5-16.8-16.8v-29.8c0-0.8,0.7-1.5,1.5-1.5h29.8c9.2,0,16.8,7.5,16.8,16.8V-292.2z M1173.6-337.2V-235
	c0,0.8-0.7,1.5-1.5,1.5h-29.8c-9.3,0-16.8-7.5-16.8-16.8v-87c0-0.8,0.7-1.5,1.5-1.5h45.1C1172.9-338.7,1173.6-338.1,1173.6-337.2z
	 M1460.1-280v29.8c0,9.2-7.5,16.8-16.8,16.8h-29.8c-0.8,0-1.5-0.7-1.5-1.5v-45c0-0.8,0.7-1.5,1.5-1.5h45.2
	C1459.4-281.5,1460.1-280.9,1460.1-280z M1517.4-337.2v29.8c0,9.2-7.5,16.8-16.8,16.8h-87.2c-0.8,0-1.5-0.7-1.5-1.5v-45
	c0-0.8,0.7-1.5,1.5-1.5h102.4C1516.8-338.7,1517.4-338.1,1517.4-337.2z M1345.5-292.2c0,0.8-0.7,1.5-1.5,1.5h-29.8
	c-9.2,0-16.8-7.5-16.8-16.8v-29.8c0-0.8,0.7-1.5,1.5-1.5h29.8c9.2,0,16.8,7.5,16.8,16.8V-292.2z M1402.8-337.2V-235
	c0,0.8-0.7,1.5-1.5,1.5h-29.8c-9.2,0-16.8-7.5-16.8-16.8v-87c0-0.8,0.7-1.5,1.5-1.5h45.1C1402.1-338.7,1402.8-338.1,1402.8-337.2z
	 M1689.4-280v29.8c0,9.2-7.5,16.8-16.8,16.8h-29.9c-0.8,0-1.5-0.7-1.5-1.5v-45c0-0.8,0.6-1.5,1.4-1.5h45.2
	C1688.7-281.5,1689.4-280.9,1689.4-280z M1746.7-337.2v29.8c0,9.2-7.5,16.8-16.8,16.8h-87.2c-0.8,0-1.5-0.7-1.5-1.5v-45
	c0-0.8,0.7-1.5,1.5-1.5h102.4C1746-338.7,1746.7-338.1,1746.7-337.2z M1574.7-292.2c0,0.8-0.7,1.5-1.5,1.5h-29.8
	c-9.2,0-16.8-7.5-16.8-16.8v-29.8c0-0.8,0.7-1.5,1.5-1.5h29.8c9.3,0,16.8,7.5,16.8,16.8V-292.2z M1632.1-337.2V-235
	c0,0.8-0.7,1.5-1.5,1.5h-29.8c-9.2,0-16.8-7.5-16.8-16.8v-87c0-0.8,0.7-1.5,1.5-1.5h45.1C1631.4-338.7,1632.1-338.1,1632.1-337.2z
	 M1918.6-280v29.8c0,9.2-7.5,16.8-16.8,16.8H1872c-0.8,0-1.5-0.7-1.5-1.5v-45c0-0.8,0.6-1.5,1.4-1.5h45.2
	C1917.9-281.5,1918.6-280.9,1918.6-280L1918.6-280z M1975.9-337.2v29.8c0,9.2-7.5,16.8-16.8,16.8H1872c-0.8,0-1.5-0.7-1.5-1.5v-45
	c0-0.8,0.7-1.5,1.5-1.5h102.4C1975.2-338.7,1975.9-338.1,1975.9-337.2z M1804-292.2c0,0.8-0.7,1.5-1.5,1.5h-29.8
	c-9.2,0-16.8-7.5-16.8-16.8v-29.8c0-0.8,0.7-1.5,1.5-1.5h29.9c9.2,0,16.8,7.5,16.8,16.8V-292.2z M1861.3-337.2V-235
	c0,0.8-0.7,1.5-1.5,1.5h-29.8c-9.2,0-16.8-7.5-16.8-16.8v-87c0-0.8,0.7-1.5,1.5-1.5h45.1C1860.6-338.7,1861.3-338.1,1861.3-337.2z
	 M552.1,108.2V78.4c0-9.2,7.5-16.8,16.8-16.8h29.8c0.8,0,1.5,0.7,1.5,1.5v45c0,0.8-0.6,1.5-1.5,1.5h-45.2
	C552.8,109.7,552.1,109,552.1,108.2z M494.8,165.4v-29.8c0-9.2,7.5-16.8,16.8-16.8h87.2c0.8,0,1.5,0.7,1.5,1.5v45
	c0,0.8-0.7,1.5-1.5,1.5H496.3C495.5,166.9,494.8,166.2,494.8,165.4z M666.7,120.3c0-0.8,0.7-1.5,1.5-1.5h29.8
	c9.3,0,16.8,7.5,16.8,16.8v29.8c0,0.8-0.7,1.5-1.5,1.5h-29.8c-9.3,0-16.8-7.5-16.8-16.8V120.3z M609.4,165.4V63.2
	c0-0.8,0.7-1.5,1.5-1.5h29.8c9.3,0,16.8,7.5,16.8,16.8v87c0,0.8-0.7,1.5-1.5,1.5H611C610.1,166.9,609.4,166.2,609.4,165.4z
	 M322.9,108.2V78.4c0-9.2,7.5-16.8,16.8-16.8h29.8c0.8,0,1.5,0.7,1.5,1.5v45c0,0.8-0.6,1.5-1.5,1.5h-45.2
	C323.6,109.7,322.9,109,322.9,108.2z M265.6,165.4v-29.8c0-9.2,7.5-16.8,16.8-16.8h87.2c0.8,0,1.5,0.7,1.5,1.5v45
	c0,0.8-0.7,1.5-1.5,1.5H267.1C266.3,166.9,265.6,166.2,265.6,165.4z M437.5,120.3c0-0.8,0.7-1.5,1.5-1.5h29.8
	c9.3,0,16.8,7.5,16.8,16.8v29.8c0,0.8-0.7,1.5-1.5,1.5h-29.8c-9.3,0-16.8-7.5-16.8-16.8V120.3z M380.2,165.4V63.2
	c0-0.8,0.7-1.5,1.5-1.5h29.8c9.3,0,16.8,7.5,16.8,16.8v87c0,0.8-0.7,1.5-1.5,1.5h-45.1C380.9,166.9,380.2,166.2,380.2,165.4z
	 M93.7,108.2V78.4c0-9.2,7.5-16.8,16.8-16.8h29.8c0.8,0,1.5,0.7,1.5,1.5v45c0,0.8-0.6,1.5-1.5,1.5H95.2
	C94.4,109.7,93.7,109,93.7,108.2z M36.4,165.4v-29.8c0-9.2,7.5-16.8,16.8-16.8h87.2c0.8,0,1.5,0.7,1.5,1.5v45c0,0.8-0.7,1.5-1.5,1.5
	H37.9C37,166.9,36.4,166.2,36.4,165.4z M208.3,120.3c0-0.8,0.7-1.5,1.5-1.5h29.8c9.3,0,16.8,7.5,16.8,16.8v29.8
	c0,0.8-0.7,1.5-1.5,1.5h-29.8c-9.3,0-16.8-7.5-16.8-16.8V120.3z M151,165.4V63.2c0-0.8,0.7-1.5,1.5-1.5h29.8
	c9.3,0,16.8,7.5,16.8,16.8v87c0,0.8-0.7,1.5-1.5,1.5h-45.1C151.7,166.9,151,166.2,151,165.4z M-135.6,108.2V78.4
	c0-9.2,7.5-16.8,16.8-16.8h29.8c0.8,0,1.5,0.7,1.5,1.5v45c0,0.8-0.6,1.5-1.5,1.5H-134C-134.9,109.7-135.6,109-135.6,108.2z
	 M-192.9,165.4v-29.8c0-9.2,7.5-16.8,16.8-16.8h87.2c0.8,0,1.5,0.7,1.5,1.5v45c0,0.8-0.7,1.5-1.5,1.5h-102.4
	C-192.2,166.9-192.9,166.2-192.9,165.4z M-21,120.3c0-0.8,0.7-1.5,1.5-1.5h29.8c9.3,0,16.8,7.5,16.8,16.8v29.8
	c0,0.8-0.7,1.5-1.5,1.5H-4.2c-9.3,0-16.8-7.5-16.8-16.8V120.3z M-78.3,165.4V63.2c0-0.8,0.7-1.5,1.5-1.5h29.8
	c9.3,0,16.8,7.5,16.8,16.8v87c0,0.8-0.7,1.5-1.5,1.5h-45.1C-77.6,166.9-78.3,166.2-78.3,165.4z M-364.8,108.2V78.4
	c0-9.2,7.5-16.8,16.8-16.8h29.8c0.8,0,1.5,0.7,1.5,1.5v45c0,0.8-0.6,1.5-1.5,1.5h-45.2C-364.1,109.7-364.8,109-364.8,108.2z
	 M-422.1,165.4v-29.8c0-9.2,7.5-16.8,16.8-16.8h87.2c0.8,0,1.5,0.7,1.5,1.5v45c0,0.8-0.7,1.5-1.5,1.5h-102.4
	C-421.4,166.9-422.1,166.2-422.1,165.4z M-250.2,120.3c0-0.8,0.7-1.5,1.5-1.5h29.8c9.3,0,16.8,7.5,16.8,16.8v29.8
	c0,0.8-0.7,1.5-1.5,1.5h-29.8c-9.3,0-16.8-7.5-16.8-16.8V120.3z M-307.5,165.4V63.2c0-0.8,0.7-1.5,1.5-1.5h29.8
	c9.3,0,16.8,7.5,16.8,16.8v87c0,0.8-0.7,1.5-1.5,1.5H-306C-306.8,166.9-307.5,166.2-307.5,165.4z M552.1-63.4v-29.8
	c0-9.2,7.5-16.8,16.8-16.8h29.8c0.8,0,1.5,0.7,1.5,1.5v45c0,0.8-0.6,1.5-1.5,1.5h-45.2C552.8-61.9,552.1-62.6,552.1-63.4z
	 M494.8-6.2V-36c0-9.2,7.5-16.8,16.8-16.8h87.2c0.8,0,1.5,0.7,1.5,1.5v45c0,0.8-0.7,1.5-1.5,1.5H496.3
	C495.5-4.7,494.8-5.4,494.8-6.2z M666.7-51.2c0-0.8,0.7-1.5,1.5-1.5h29.8c9.3,0,16.8,7.5,16.8,16.8v29.8c0,0.8-0.7,1.5-1.5,1.5
	h-29.8c-9.3,0-16.8-7.5-16.8-16.8V-51.2z M609.4-6.2v-102.2c0-0.8,0.7-1.5,1.5-1.5h29.8c9.3,0,16.8,7.5,16.8,16.8v87
	c0,0.8-0.7,1.5-1.5,1.5H611C610.1-4.7,609.4-5.4,609.4-6.2z M322.9-63.4v-29.8c0-9.2,7.5-16.8,16.8-16.8h29.8c0.8,0,1.5,0.7,1.5,1.5
	v45c0,0.8-0.6,1.5-1.5,1.5h-45.2C323.6-61.9,322.9-62.6,322.9-63.4z M265.6-6.2V-36c0-9.2,7.5-16.8,16.8-16.8h87.2
	c0.8,0,1.5,0.7,1.5,1.5v45c0,0.8-0.7,1.5-1.5,1.5H267.1C266.3-4.7,265.6-5.4,265.6-6.2z M437.5-51.2c0-0.8,0.7-1.5,1.5-1.5h29.8
	c9.3,0,16.8,7.5,16.8,16.8v29.8c0,0.8-0.7,1.5-1.5,1.5h-29.8c-9.3,0-16.8-7.5-16.8-16.8V-51.2z M380.2-6.2v-102.2
	c0-0.8,0.7-1.5,1.5-1.5h29.8c9.3,0,16.8,7.5,16.8,16.8v87c0,0.8-0.7,1.5-1.5,1.5h-45.1C380.9-4.7,380.2-5.4,380.2-6.2z M93.7-63.4
	v-29.8c0-9.2,7.5-16.8,16.8-16.8h29.8c0.8,0,1.5,0.7,1.5,1.5v45c0,0.8-0.6,1.5-1.5,1.5H95.2C94.4-61.9,93.7-62.6,93.7-63.4z
	 M36.4-6.2V-36c0-9.2,7.5-16.8,16.8-16.8h87.2c0.8,0,1.5,0.7,1.5,1.5v45c0,0.8-0.7,1.5-1.5,1.5H37.9C37-4.7,36.4-5.4,36.4-6.2z
	 M208.3-51.2c0-0.8,0.7-1.5,1.5-1.5h29.8c9.3,0,16.8,7.5,16.8,16.8v29.8c0,0.8-0.7,1.5-1.5,1.5h-29.8c-9.3,0-16.8-7.5-16.8-16.8
	V-51.2z M151-6.2v-102.2c0-0.8,0.7-1.5,1.5-1.5h29.8c9.3,0,16.8,7.5,16.8,16.8v87c0,0.8-0.7,1.5-1.5,1.5h-45.1
	C151.7-4.7,151-5.4,151-6.2z M-135.6-63.4v-29.8c0-9.2,7.5-16.8,16.8-16.8h29.8c0.8,0,1.5,0.7,1.5,1.5v45c0,0.8-0.6,1.5-1.5,1.5
	H-134C-134.9-61.9-135.6-62.6-135.6-63.4z M-192.9-6.2V-36c0-9.2,7.5-16.8,16.8-16.8h87.2c0.8,0,1.5,0.7,1.5,1.5v45
	c0,0.8-0.7,1.5-1.5,1.5l-102.4,0C-192.2-4.7-192.9-5.4-192.9-6.2z M-21-51.2c0-0.8,0.7-1.5,1.5-1.5h29.8c9.3,0,16.8,7.5,16.8,16.8
	v29.8c0,0.8-0.7,1.5-1.5,1.5H-4.2c-9.3,0-16.8-7.5-16.8-16.8V-51.2z M-78.3-6.2v-102.2c0-0.8,0.7-1.5,1.5-1.5h29.8
	c9.3,0,16.8,7.5,16.8,16.8v87c0,0.8-0.7,1.5-1.5,1.5h-45.1C-77.6-4.7-78.3-5.4-78.3-6.2z M-364.8-63.4v-29.8
	c0-9.2,7.5-16.8,16.8-16.8h29.8c0.8,0,1.5,0.7,1.5,1.5v45c0,0.8-0.6,1.5-1.5,1.5h-45.2C-364.1-61.9-364.8-62.6-364.8-63.4z
	 M-422.1-6.2V-36c0-9.2,7.5-16.8,16.8-16.8h87.2c0.8,0,1.5,0.7,1.5,1.5v45c0,0.8-0.7,1.5-1.5,1.5h-102.4
	C-421.4-4.7-422.1-5.4-422.1-6.2z M-250.2-51.2c0-0.8,0.7-1.5,1.5-1.5h29.8c9.3,0,16.8,7.5,16.8,16.8v29.8c0,0.8-0.7,1.5-1.5,1.5
	h-29.8c-9.3,0-16.8-7.5-16.8-16.8V-51.2z M-307.5-6.2v-102.2c0-0.8,0.7-1.5,1.5-1.5h29.8c9.3,0,16.8,7.5,16.8,16.8v87
	c0,0.8-0.7,1.5-1.5,1.5H-306C-306.8-4.7-307.5-5.4-307.5-6.2z M552.1-235v-29.8c0-9.2,7.5-16.8,16.8-16.8h29.8
	c0.8,0,1.5,0.7,1.5,1.5v45c0,0.8-0.6,1.5-1.5,1.5h-45.2C552.8-233.5,552.1-234.2,552.1-235z M494.8-177.8v-29.8
	c0-9.2,7.5-16.8,16.8-16.8h87.2c0.8,0,1.5,0.7,1.5,1.5v45c0,0.8-0.7,1.5-1.5,1.5H496.3C495.5-176.3,494.8-177,494.8-177.8z
	 M666.7-222.8c0-0.8,0.7-1.5,1.5-1.5h29.8c9.3,0,16.8,7.5,16.8,16.8v29.8c0,0.8-0.7,1.5-1.5,1.5h-29.8c-9.3,0-16.8-7.5-16.8-16.8
	V-222.8z M609.4-177.8V-280c0-0.8,0.7-1.5,1.5-1.5h29.8c9.3,0,16.8,7.5,16.8,16.8v87c0,0.8-0.7,1.5-1.5,1.5H611
	C610.1-176.3,609.4-177,609.4-177.8z M322.9-235v-29.8c0-9.2,7.5-16.8,16.8-16.8h29.8c0.8,0,1.5,0.7,1.5,1.5v45
	c0,0.8-0.6,1.5-1.5,1.5h-45.2C323.6-233.5,322.9-234.2,322.9-235z M265.6-177.8v-29.8c0-9.2,7.5-16.8,16.8-16.8h87.2
	c0.8,0,1.5,0.7,1.5,1.5v45c0,0.8-0.7,1.5-1.5,1.5H267.1C266.3-176.3,265.6-177,265.6-177.8z M437.5-222.8c0-0.8,0.7-1.5,1.5-1.5
	h29.8c9.3,0,16.8,7.5,16.8,16.8v29.8c0,0.8-0.7,1.5-1.5,1.5h-29.8c-9.3,0-16.8-7.5-16.8-16.8V-222.8z M380.2-177.8V-280
	c0-0.8,0.7-1.5,1.5-1.5h29.8c9.3,0,16.8,7.5,16.8,16.8l0,87c0,0.8-0.7,1.5-1.5,1.5h-45.1C380.9-176.3,380.2-177,380.2-177.8z
	 M93.7-235v-29.8c0-9.2,7.5-16.8,16.8-16.8h29.8c0.8,0,1.5,0.7,1.5,1.5v45c0,0.8-0.6,1.5-1.5,1.5H95.2
	C94.4-233.5,93.7-234.2,93.7-235z M36.4-177.8v-29.8c0-9.2,7.5-16.8,16.8-16.8h87.2c0.8,0,1.5,0.7,1.5,1.5v45c0,0.8-0.7,1.5-1.5,1.5
	H37.9C37-176.3,36.4-177,36.4-177.8z M208.3-222.8c0-0.8,0.7-1.5,1.5-1.5h29.8c9.3,0,16.8,7.5,16.8,16.8v29.8c0,0.8-0.7,1.5-1.5,1.5
	h-29.8c-9.3,0-16.8-7.5-16.8-16.8V-222.8z M151-177.8V-280c0-0.8,0.7-1.5,1.5-1.5h29.8c9.3,0,16.8,7.5,16.8,16.8v87
	c0,0.8-0.7,1.5-1.5,1.5h-45.1C151.7-176.3,151-177,151-177.8z M-135.6-235v-29.8c0-9.2,7.5-16.8,16.8-16.8h29.8
	c0.8,0,1.5,0.7,1.5,1.5v45c0,0.8-0.6,1.5-1.5,1.5H-134C-134.9-233.5-135.6-234.2-135.6-235z M-192.9-177.8v-29.8
	c0-9.2,7.5-16.8,16.8-16.8h87.2c0.8,0,1.5,0.7,1.5,1.5v45c0,0.8-0.7,1.5-1.5,1.5h-102.4C-192.2-176.3-192.9-177-192.9-177.8z
	 M-21-222.8c0-0.8,0.7-1.5,1.5-1.5h29.8c9.3,0,16.8,7.5,16.8,16.8v29.8c0,0.8-0.7,1.5-1.5,1.5H-4.2c-9.3,0-16.8-7.5-16.8-16.8
	V-222.8z M-78.3-177.8V-280c0-0.8,0.7-1.5,1.5-1.5h29.8c9.3,0,16.8,7.5,16.8,16.8v87c0,0.8-0.7,1.5-1.5,1.5h-45.1
	C-77.6-176.3-78.3-177-78.3-177.8z M-364.8-235v-29.8c0-9.2,7.5-16.8,16.8-16.8h29.8c0.8,0,1.5,0.7,1.5,1.5v45
	c0,0.8-0.6,1.5-1.5,1.5h-45.2C-364.1-233.5-364.8-234.2-364.8-235z M-422.1-177.8v-29.8c0-9.2,7.5-16.8,16.8-16.8h87.2
	c0.8,0,1.5,0.7,1.5,1.5v45c0,0.8-0.7,1.5-1.5,1.5h-102.4C-421.4-176.3-422.1-177-422.1-177.8z M-250.2-222.8c0-0.8,0.7-1.5,1.5-1.5
	h29.8c9.3,0,16.8,7.5,16.8,16.8v29.8c0,0.8-0.7,1.5-1.5,1.5h-29.8c-9.3,0-16.8-7.5-16.8-16.8V-222.8z M-307.5-177.8V-280
	c0-0.8,0.7-1.5,1.5-1.5h29.8c9.3,0,16.8,7.5,16.8,16.8v87c0,0.8-0.7,1.5-1.5,1.5H-306C-306.8-176.3-307.5-177-307.5-177.8z
	 M-144.7,63.2v29.8c0,9.2-7.5,16.8-16.8,16.8h-29.8c-0.8,0-1.5-0.7-1.5-1.5v-45c0-0.8,0.6-1.5,1.5-1.5h45.2
	C-145.4,61.6-144.7,62.3-144.7,63.2z M-87.4,6v29.8c0,9.2-7.5,16.8-16.8,16.8h-87.2c-0.8,0-1.5-0.7-1.5-1.5V6c0-0.8,0.7-1.5,1.5-1.5
	h102.4C-88.1,4.4-87.4,5.1-87.4,6z M-259.3,51c0,0.8-0.7,1.5-1.5,1.5h-29.8c-9.3,0-16.8-7.5-16.8-16.8V6c0-0.8,0.7-1.5,1.5-1.5h29.8
	c9.3,0,16.8,7.5,16.8,16.8V51z M-202,6v102.2c0,0.8-0.7,1.5-1.5,1.5h-29.8c-9.3,0-16.8-7.5-16.8-16.8V6c0-0.8,0.7-1.5,1.5-1.5h45.1
	C-202.7,4.4-202,5.1-202,6z M84.5,63.2v29.8c0,9.2-7.5,16.8-16.8,16.8H37.9c-0.8,0-1.5-0.7-1.5-1.5v-45c0-0.8,0.6-1.5,1.5-1.5H83
	C83.8,61.6,84.5,62.3,84.5,63.2z M141.8,6v29.8c0,9.2-7.5,16.8-16.8,16.8H37.9c-0.8,0-1.5-0.7-1.5-1.5V6c0-0.8,0.7-1.5,1.5-1.5
	h102.4C141.1,4.4,141.8,5.1,141.8,6z M-30.1,51c0,0.8-0.7,1.5-1.5,1.5h-29.8c-9.3,0-16.8-7.5-16.8-16.8V6c0-0.8,0.7-1.5,1.5-1.5
	h29.8c9.3,0,16.8,7.5,16.8,16.8V51z M27.2,6v102.2c0,0.8-0.7,1.5-1.5,1.5H-4.2c-9.3,0-16.8-7.5-16.8-16.8V6c0-0.8,0.7-1.5,1.5-1.5
	h45.1C26.5,4.4,27.2,5.1,27.2,6z M313.8,63.2v29.8c0,9.2-7.5,16.8-16.8,16.8h-29.8c-0.8,0-1.5-0.7-1.5-1.5v-45
	c0-0.8,0.6-1.5,1.5-1.5h45.2C313.1,61.6,313.8,62.3,313.8,63.2z M371.1,6v29.8c0,9.2-7.5,16.8-16.8,16.8h-87.2
	c-0.8,0-1.5-0.7-1.5-1.5V6c0-0.8,0.7-1.5,1.5-1.5h102.4C370.4,4.4,371.1,5.1,371.1,6z M199.1,51c0,0.8-0.7,1.5-1.5,1.5h-29.8
	c-9.3,0-16.8-7.5-16.8-16.8V6c0-0.8,0.7-1.5,1.5-1.5h29.8c9.3,0,16.8,7.5,16.8,16.8V51z M256.4,6v102.2c0,0.8-0.7,1.5-1.5,1.5h-29.8
	c-9.3,0-16.8-7.5-16.8-16.8V6c0-0.8,0.7-1.5,1.5-1.5h45.1C255.8,4.4,256.4,5.1,256.4,6z M543,63.2v29.8c0,9.2-7.5,16.8-16.8,16.8
	h-29.8c-0.8,0-1.5-0.7-1.5-1.5v-45c0-0.8,0.6-1.5,1.5-1.5h45.2C542.3,61.6,543,62.3,543,63.2z M600.3,6v29.8
	c0,9.2-7.5,16.8-16.8,16.8h-87.2c-0.8,0-1.5-0.7-1.5-1.5V6c0-0.8,0.7-1.5,1.5-1.5h102.4C599.6,4.4,600.3,5.1,600.3,6z M428.4,51
	c0,0.8-0.7,1.5-1.5,1.5H397c-9.3,0-16.8-7.5-16.8-16.8V6c0-0.8,0.7-1.5,1.5-1.5h29.8c9.3,0,16.8,7.5,16.8,16.8V51z M485.7,6v102.2
	c0,0.8-0.7,1.5-1.5,1.5h-29.8c-9.3,0-16.8-7.5-16.8-16.8V6c0-0.8,0.7-1.5,1.5-1.5h45.1C485,4.4,485.7,5.1,485.7,6z M772.2,63.2v29.8
	c0,9.2-7.5,16.8-16.8,16.8h-29.8c-0.8,0-1.5-0.7-1.5-1.5v-45c0-0.8,0.6-1.5,1.5-1.5h45.2C771.5,61.6,772.2,62.3,772.2,63.2
	L772.2,63.2z M829.5,6v29.8c0,9.2-7.5,16.8-16.8,16.8h-87.2c-0.8,0-1.5-0.7-1.5-1.5V6c0-0.8,0.7-1.5,1.5-1.5H828
	C828.8,4.4,829.5,5.1,829.5,6z M657.6,51c0,0.8-0.7,1.5-1.5,1.5h-29.8c-9.3,0-16.8-7.5-16.8-16.8V6c0-0.8,0.7-1.5,1.5-1.5h29.8
	c9.3,0,16.8,7.5,16.8,16.8V51z M714.9,6v102.2c0,0.8-0.7,1.5-1.5,1.5h-29.8c-9.3,0-16.8-7.5-16.8-16.8V6c0-0.8,0.7-1.5,1.5-1.5h45.1
	C714.2,4.4,714.9,5.1,714.9,6z M-144.7-108.4v29.8c0,9.2-7.5,16.8-16.8,16.8h-29.8c-0.8,0-1.5-0.7-1.5-1.5v-45
	c0-0.8,0.6-1.5,1.5-1.5h45.2C-145.4-110-144.7-109.3-144.7-108.4z M-87.4-165.6v29.8c0,9.2-7.5,16.8-16.8,16.8h-87.2
	c-0.8,0-1.5-0.7-1.5-1.5v-45c0-0.8,0.7-1.5,1.5-1.5h102.4C-88.1-167.2-87.4-166.5-87.4-165.6z M-259.3-120.6c0,0.8-0.7,1.5-1.5,1.5
	h-29.8c-9.3,0-16.8-7.5-16.8-16.8v-29.8c0-0.8,0.7-1.5,1.5-1.5h29.8c9.3,0,16.8,7.5,16.8,16.8V-120.6z M-202-165.6v102.2
	c0,0.8-0.7,1.5-1.5,1.5h-29.8c-9.3,0-16.8-7.5-16.8-16.8v-87c0-0.8,0.7-1.5,1.5-1.5h45.1C-202.7-167.2-202-166.5-202-165.6z
	 M84.5-108.4v29.8c0,9.2-7.5,16.8-16.8,16.8H37.9c-0.8,0-1.5-0.7-1.5-1.5v-45c0-0.8,0.6-1.5,1.5-1.5H83
	C83.8-110,84.5-109.3,84.5-108.4z M141.8-165.6v29.8c0,9.2-7.5,16.8-16.8,16.8H37.9c-0.8,0-1.5-0.7-1.5-1.5v-45
	c0-0.8,0.7-1.5,1.5-1.5h102.4C141.1-167.2,141.8-166.5,141.8-165.6z M-30.1-120.6c0,0.8-0.7,1.5-1.5,1.5h-29.8
	c-9.3,0-16.8-7.5-16.8-16.8v-29.8c0-0.8,0.7-1.5,1.5-1.5h29.8c9.3,0,16.8,7.5,16.8,16.8V-120.6z M27.2-165.6v102.2
	c0,0.8-0.7,1.5-1.5,1.5H-4.2c-9.3,0-16.8-7.5-16.8-16.8v-87c0-0.8,0.7-1.5,1.5-1.5h45.1C26.5-167.2,27.2-166.5,27.2-165.6z
	 M313.8-108.4v29.8c0,9.2-7.5,16.8-16.8,16.8h-29.8c-0.8,0-1.5-0.7-1.5-1.5v-45c0-0.8,0.6-1.5,1.5-1.5h45.2
	C313.1-110,313.8-109.3,313.8-108.4z M371.1-165.6v29.8c0,9.2-7.5,16.8-16.8,16.8h-87.2c-0.8,0-1.5-0.7-1.5-1.5v-45
	c0-0.8,0.7-1.5,1.5-1.5h102.4C370.4-167.2,371.1-166.5,371.1-165.6z M199.1-120.6c0,0.8-0.7,1.5-1.5,1.5h-29.8
	c-9.3,0-16.8-7.5-16.8-16.8v-29.8c0-0.8,0.7-1.5,1.5-1.5h29.8c9.3,0,16.8,7.5,16.8,16.8V-120.6z M256.4-165.6v102.2
	c0,0.8-0.7,1.5-1.5,1.5h-29.8c-9.3,0-16.8-7.5-16.8-16.8v-87c0-0.8,0.7-1.5,1.5-1.5h45.1C255.8-167.2,256.4-166.5,256.4-165.6z
	 M543-108.4v29.8c0,9.2-7.5,16.8-16.8,16.8h-29.8c-0.8,0-1.5-0.7-1.5-1.5v-45c0-0.8,0.6-1.5,1.5-1.5h45.2
	C542.3-110,543-109.3,543-108.4z M600.3-165.6v29.8c0,9.2-7.5,16.8-16.8,16.8h-87.2c-0.8,0-1.5-0.7-1.5-1.5v-45
	c0-0.8,0.7-1.5,1.5-1.5h102.4C599.6-167.2,600.3-166.5,600.3-165.6z M428.4-120.6c0,0.8-0.7,1.5-1.5,1.5H397
	c-9.3,0-16.8-7.5-16.8-16.8v-29.8c0-0.8,0.7-1.5,1.5-1.5h29.8c9.3,0,16.8,7.5,16.8,16.8V-120.6z M485.7-165.6v102.2
	c0,0.8-0.7,1.5-1.5,1.5h-29.8c-9.3,0-16.8-7.5-16.8-16.8v-87c0-0.8,0.7-1.5,1.5-1.5h45.1C485-167.2,485.7-166.5,485.7-165.6z
	 M772.2-108.4v29.8c0,9.2-7.5,16.8-16.8,16.8h-29.8c-0.8,0-1.5-0.7-1.5-1.5v-45c0-0.8,0.6-1.5,1.5-1.5h45.2
	C771.5-110,772.2-109.3,772.2-108.4L772.2-108.4z M829.5-165.6v29.8c0,9.2-7.5,16.8-16.8,16.8h-87.2c-0.8,0-1.5-0.7-1.5-1.5v-45
	c0-0.8,0.7-1.5,1.5-1.5H828C828.8-167.2,829.5-166.5,829.5-165.6z M657.6-120.6c0,0.8-0.7,1.5-1.5,1.5h-29.8
	c-9.3,0-16.8-7.5-16.8-16.8v-29.8c0-0.8,0.7-1.5,1.5-1.5h29.8c9.3,0,16.8,7.5,16.8,16.8V-120.6z M714.9-165.6v102.2
	c0,0.8-0.7,1.5-1.5,1.5h-29.8c-9.3,0-16.8-7.5-16.8-16.8v-87c0-0.8,0.7-1.5,1.5-1.5h45.1C714.2-167.2,714.9-166.5,714.9-165.6z
	 M-144.7-280v29.8c0,9.2-7.5,16.8-16.8,16.8h-29.8c-0.8,0-1.5-0.7-1.5-1.5v-45c0-0.8,0.6-1.5,1.5-1.5h45.2
	C-145.4-281.5-144.7-280.9-144.7-280z M-87.4-337.2v29.8c0,9.2-7.5,16.8-16.8,16.8h-87.2c-0.8,0-1.5-0.7-1.5-1.5v-45
	c0-0.8,0.7-1.5,1.5-1.5h102.4C-88.1-338.7-87.4-338.1-87.4-337.2z M-259.3-292.2c0,0.8-0.7,1.5-1.5,1.5h-29.8
	c-9.3,0-16.8-7.5-16.8-16.8v-29.8c0-0.8,0.7-1.5,1.5-1.5h29.8c9.3,0,16.8,7.5,16.8,16.8V-292.2z M-202-337.2V-235
	c0,0.8-0.7,1.5-1.5,1.5h-29.8c-9.3,0-16.8-7.5-16.8-16.8v-87c0-0.8,0.7-1.5,1.5-1.5h45.1C-202.7-338.7-202-338.1-202-337.2z
	 M84.5-280v29.8c0,9.2-7.5,16.8-16.8,16.8H37.9c-0.8,0-1.5-0.7-1.5-1.5v-45c0-0.8,0.6-1.5,1.5-1.5H83
	C83.8-281.5,84.5-280.9,84.5-280z M141.8-337.2v29.8c0,9.2-7.5,16.8-16.8,16.8H37.9c-0.8,0-1.5-0.7-1.5-1.5v-45
	c0-0.8,0.7-1.5,1.5-1.5h102.4C141.1-338.7,141.8-338.1,141.8-337.2z M-30.1-292.2c0,0.8-0.7,1.5-1.5,1.5h-29.8
	c-9.3,0-16.8-7.5-16.8-16.8v-29.8c0-0.8,0.7-1.5,1.5-1.5h29.8c9.3,0,16.8,7.5,16.8,16.8V-292.2z M27.2-337.2V-235
	c0,0.8-0.7,1.5-1.5,1.5H-4.2c-9.3,0-16.8-7.5-16.8-16.8v-87c0-0.8,0.7-1.5,1.5-1.5h45.1C26.5-338.7,27.2-338.1,27.2-337.2z
	 M313.8-280v29.8c0,9.2-7.5,16.8-16.8,16.8h-29.8c-0.8,0-1.5-0.7-1.5-1.5v-45c0-0.8,0.6-1.5,1.5-1.5h45.2
	C313.1-281.5,313.8-280.9,313.8-280z M371.1-337.2v29.8c0,9.2-7.5,16.8-16.8,16.8h-87.2c-0.8,0-1.5-0.7-1.5-1.5v-45
	c0-0.8,0.7-1.5,1.5-1.5h102.4C370.4-338.7,371.1-338.1,371.1-337.2z M199.1-292.2c0,0.8-0.7,1.5-1.5,1.5h-29.8
	c-9.3,0-16.8-7.5-16.8-16.8v-29.8c0-0.8,0.7-1.5,1.5-1.5h29.8c9.3,0,16.8,7.5,16.8,16.8V-292.2z M256.4-337.2V-235
	c0,0.8-0.7,1.5-1.5,1.5h-29.8c-9.3,0-16.8-7.5-16.8-16.8v-87c0-0.8,0.7-1.5,1.5-1.5h45.1C255.8-338.7,256.4-338.1,256.4-337.2z
	 M543-280v29.8c0,9.2-7.5,16.8-16.8,16.8h-29.8c-0.8,0-1.5-0.7-1.5-1.5v-45c0-0.8,0.6-1.5,1.5-1.5h45.2
	C542.3-281.5,543-280.9,543-280z M600.3-337.2v29.8c0,9.2-7.5,16.8-16.8,16.8h-87.2c-0.8,0-1.5-0.7-1.5-1.5v-45
	c0-0.8,0.7-1.5,1.5-1.5h102.4C599.6-338.7,600.3-338.1,600.3-337.2z M428.4-292.2c0,0.8-0.7,1.5-1.5,1.5H397
	c-9.3,0-16.8-7.5-16.8-16.8v-29.8c0-0.8,0.7-1.5,1.5-1.5h29.8c9.3,0,16.8,7.5,16.8,16.8V-292.2z M485.7-337.2V-235
	c0,0.8-0.7,1.5-1.5,1.5h-29.8c-9.3,0-16.8-7.5-16.8-16.8v-87c0-0.8,0.7-1.5,1.5-1.5h45.1C485-338.7,485.7-338.1,485.7-337.2z
	 M772.2-280v29.8c0,9.2-7.5,16.8-16.8,16.8h-29.8c-0.8,0-1.5-0.7-1.5-1.5v-45c0-0.8,0.6-1.5,1.5-1.5h45.2
	C771.5-281.5,772.2-280.9,772.2-280L772.2-280z M829.5-337.2v29.8c0,9.2-7.5,16.8-16.8,16.8h-87.2c-0.8,0-1.5-0.7-1.5-1.5v-45
	c0-0.8,0.7-1.5,1.5-1.5H828C828.8-338.7,829.5-338.1,829.5-337.2z M657.6-292.2c0,0.8-0.7,1.5-1.5,1.5h-29.8
	c-9.3,0-16.8-7.5-16.8-16.8v-29.8c0-0.8,0.7-1.5,1.5-1.5h29.8c9.3,0,16.8,7.5,16.8,16.8V-292.2z M714.9-337.2V-235
	c0,0.8-0.7,1.5-1.5,1.5h-29.8c-9.3,0-16.8-7.5-16.8-16.8v-87c0-0.8,0.7-1.5,1.5-1.5h45.1C714.2-338.7,714.9-338.1,714.9-337.2z"/>
</svg>
