<svg width="1440" height="239" viewBox="0 0 1440 239" fill="none" xmlns="http://www.w3.org/2000/svg">
<path d="M1059.08 238.539C1059.08 237.697 1058.39 237.014 1057.55 237.014H955.14C954.297 237.014 953.613 237.697 953.613 238.539M839 238.545C839 237.703 839.685 237.02 840.528 237.02H870.371M944.466 238.539C944.466 237.697 943.781 237.014 942.938 237.014L897.837 237.014C896.994 237.014 896.31 237.697 896.31 238.539M1288.31 238.539C1288.31 237.697 1287.62 237.014 1286.78 237.014H1184.37C1183.53 237.014 1182.84 237.697 1182.84 238.539M1068.23 238.545C1068.23 237.703 1068.92 237.02 1069.76 237.02H1099.6M1173.7 238.539C1173.7 237.697 1173.01 237.014 1172.17 237.014H1127.07C1126.23 237.014 1125.54 237.697 1125.54 238.539M1517.54 238.539C1517.54 237.697 1516.86 237.014 1516.01 237.014H1413.6C1412.76 237.014 1412.07 237.697 1412.07 238.539M1297.46 238.545C1297.46 237.703 1298.15 237.02 1298.99 237.02H1328.83M1402.93 238.539C1402.93 237.697 1402.24 237.014 1401.4 237.014H1356.3C1355.46 237.014 1354.77 237.697 1354.77 238.539M1746.77 238.539C1746.77 237.697 1746.09 237.014 1745.24 237.014H1642.83C1641.99 237.014 1641.31 237.697 1641.31 238.539M1526.69 238.545C1526.69 237.703 1527.38 237.02 1528.22 237.02H1558.06M1632.16 238.539C1632.16 237.697 1631.47 237.014 1630.63 237.014L1585.53 237.014C1584.69 237.014 1584 237.697 1584 238.539M1976 238.539C1976 237.697 1975.32 237.014 1974.47 237.014H1872.06C1871.22 237.014 1870.54 237.697 1870.54 238.539M1755.92 238.545C1755.92 237.703 1756.61 237.02 1757.45 237.02H1787.3M1861.39 238.539C1861.39 237.697 1860.71 237.014 1859.86 237.014H1814.76C1813.92 237.014 1813.23 237.697 1813.23 238.539M-87.2956 238.539C-87.2956 237.697 -87.98 237.014 -88.8232 237.014H-191.233C-192.076 237.014 -192.761 237.697 -192.761 238.539M-307.373 238.545C-307.373 237.703 -306.689 237.02 -305.846 237.02L-276.003 237.02M-201.908 238.539C-201.908 237.697 -202.592 237.014 -203.436 237.014H-248.536C-249.38 237.014 -250.064 237.697 -250.064 238.539M141.935 238.539C141.935 237.697 141.251 237.014 140.408 237.014H37.9977C37.1545 237.014 36.4701 237.697 36.4701 238.539M-78.1423 238.545C-78.1423 237.703 -77.4579 237.02 -76.6147 237.02H-46.7716M27.3229 238.539C27.3229 237.697 26.6386 237.014 25.7953 237.014H-19.3054C-20.1486 237.014 -20.8329 237.697 -20.8329 238.539M371.166 238.539C371.166 237.697 370.482 237.014 369.639 237.014H267.229C266.386 237.014 265.701 237.697 265.701 238.539M151.089 238.545C151.089 237.703 151.773 237.02 152.616 237.02H182.459M256.554 238.539C256.554 237.697 255.87 237.014 255.026 237.014L209.926 237.014C209.082 237.014 208.398 237.697 208.398 238.539M600.397 238.539C600.397 237.697 599.713 237.014 598.87 237.014H496.46C495.617 237.014 494.932 237.697 494.932 238.539M380.32 238.545C380.32 237.703 381.004 237.02 381.847 237.02H411.69M485.785 238.539C485.785 237.697 485.101 237.014 484.257 237.014H439.157C438.313 237.014 437.629 237.697 437.629 238.539M829.628 238.539C829.628 237.697 828.944 237.014 828.101 237.014H725.691C724.848 237.014 724.163 237.697 724.163 238.539M609.551 238.545C609.551 237.703 610.235 237.02 611.078 237.02H640.922M715.016 238.539C715.016 237.697 714.332 237.014 713.488 237.014H668.388C667.544 237.014 666.86 237.697 666.86 238.539M1698.61 169.163V139.378C1698.61 130.139 1706.14 122.625 1715.39 122.625H1745.24C1746.08 122.625 1746.76 123.308 1746.76 124.15V169.163C1746.76 169.98 1746.12 170.651 1745.31 170.687H1700.14C1699.29 170.687 1698.61 170.004 1698.61 169.163ZM1641.3 226.36V196.575C1641.3 187.342 1648.83 179.823 1658.08 179.823H1745.24C1746.08 179.823 1746.76 180.506 1746.76 181.347V226.36C1746.76 227.202 1746.08 227.885 1745.24 227.885L1642.83 227.885C1641.98 227.885 1641.3 227.202 1641.3 226.36ZM1813.22 181.347C1813.22 180.506 1813.91 179.823 1814.75 179.823H1844.59C1853.84 179.823 1861.38 187.342 1861.38 196.575V226.36C1861.38 227.202 1860.69 227.885 1859.85 227.885H1830.01C1820.76 227.885 1813.22 220.365 1813.22 211.132V181.347ZM1755.92 226.36V124.15C1755.92 123.308 1756.6 122.625 1757.45 122.625H1787.29C1796.54 122.625 1804.07 130.139 1804.07 139.378V226.36C1804.07 227.202 1803.39 227.885 1802.55 227.885H1757.45C1756.6 227.885 1755.92 227.202 1755.92 226.36ZM1469.38 169.163V139.378C1469.38 130.139 1476.91 122.625 1486.16 122.625H1516.01C1516.85 122.625 1517.53 123.308 1517.53 124.15V169.163C1517.53 169.98 1516.89 170.651 1516.08 170.687L1470.91 170.687C1470.06 170.687 1469.38 170.004 1469.38 169.163ZM1412.07 226.36V196.575C1412.07 187.342 1419.6 179.823 1428.85 179.823L1516.01 179.823C1516.85 179.823 1517.53 180.506 1517.53 181.347V226.36C1517.53 227.202 1516.85 227.885 1516.01 227.885H1413.6C1412.75 227.885 1412.07 227.202 1412.07 226.36ZM1583.99 181.347C1583.99 180.506 1584.67 179.823 1585.52 179.823H1615.36C1624.61 179.823 1632.15 187.342 1632.15 196.575V226.36C1632.15 227.202 1631.46 227.885 1630.62 227.885H1600.78C1591.52 227.885 1583.99 220.365 1583.99 211.132V181.347ZM1526.69 226.36V124.15C1526.69 123.308 1527.37 122.625 1528.21 122.625H1558.06C1567.31 122.625 1574.84 130.139 1574.84 139.378L1574.84 226.36C1574.84 227.202 1574.16 227.885 1573.32 227.885H1528.21C1527.37 227.885 1526.69 227.202 1526.69 226.36ZM1240.15 169.163V139.378C1240.15 130.139 1247.68 122.625 1256.93 122.625H1286.78C1287.62 122.625 1288.3 123.308 1288.3 124.15V169.163C1288.3 169.98 1287.66 170.651 1286.85 170.687H1241.67C1240.83 170.687 1240.15 170.004 1240.15 169.163ZM1182.84 226.36V196.575C1182.84 187.342 1190.37 179.823 1199.62 179.823H1286.78C1287.62 179.823 1288.3 180.506 1288.3 181.347V226.36C1288.3 227.202 1287.62 227.885 1286.78 227.885H1184.37C1183.52 227.885 1182.84 227.202 1182.84 226.36ZM1354.76 181.347C1354.76 180.506 1355.44 179.823 1356.29 179.823H1386.13C1395.38 179.823 1402.92 187.342 1402.92 196.575V226.36C1402.92 227.202 1402.23 227.885 1401.39 227.885H1371.54C1362.29 227.885 1354.76 220.365 1354.76 211.132V181.347ZM1297.46 226.36V124.15C1297.46 123.308 1298.14 122.625 1298.98 122.625H1328.83C1338.08 122.625 1345.61 130.139 1345.61 139.378V226.36C1345.61 227.202 1344.93 227.885 1344.08 227.885L1298.98 227.885C1298.14 227.885 1297.46 227.202 1297.46 226.36ZM1010.92 169.163V139.378C1010.92 130.139 1018.45 122.625 1027.7 122.625H1057.54C1058.39 122.625 1059.07 123.308 1059.07 124.15V169.163C1059.07 169.98 1058.42 170.651 1057.62 170.687H1012.44C1011.6 170.687 1010.92 170.004 1010.92 169.163ZM953.607 226.36V196.575C953.607 187.342 961.141 179.823 970.392 179.823H1057.54C1058.39 179.823 1059.07 180.506 1059.07 181.347V226.36C1059.07 227.202 1058.39 227.885 1057.54 227.885L955.134 227.885C954.291 227.885 953.607 227.202 953.607 226.36ZM1125.53 181.347C1125.53 180.506 1126.21 179.823 1127.06 179.823H1156.9C1166.15 179.823 1173.68 187.342 1173.68 196.575V226.36C1173.68 227.202 1173 227.885 1172.16 227.885H1142.31C1133.06 227.885 1125.53 220.365 1125.53 211.132V181.347ZM1068.23 226.36V124.15C1068.23 123.308 1068.91 122.625 1069.75 122.625H1099.6C1108.85 122.625 1116.38 130.139 1116.38 139.378V226.36C1116.38 227.202 1115.7 227.885 1114.85 227.885H1069.75C1068.91 227.885 1068.23 227.202 1068.23 226.36ZM781.685 169.163V139.378C781.685 130.139 789.219 122.625 798.47 122.625H828.313C829.156 122.625 829.841 123.308 829.841 124.15V169.163C829.841 169.98 829.193 170.651 828.387 170.687H783.213C782.369 170.687 781.685 170.004 781.685 169.163ZM724.376 226.36V196.575C724.376 187.342 731.91 179.823 741.161 179.823L828.313 179.823C829.156 179.823 829.841 180.506 829.841 181.347L829.841 226.36C829.841 227.202 829.156 227.885 828.313 227.885H725.903C725.06 227.885 724.376 227.202 724.376 226.36ZM896.304 181.347C896.304 180.506 896.988 179.823 897.831 179.823H927.674C936.925 179.823 944.459 187.342 944.459 196.575V226.36C944.459 227.202 943.775 227.885 942.932 227.885H913.089C903.838 227.885 896.304 220.365 896.304 211.132V181.347ZM838.994 226.36V124.15C838.994 123.308 839.678 122.625 840.522 122.625H870.365C879.616 122.625 887.15 130.139 887.15 139.378V226.36C887.15 227.202 886.466 227.885 885.623 227.885H840.522C839.679 227.885 838.994 227.202 838.994 226.36ZM1698.61 -2.42346V-32.2083C1698.61 -41.4475 1706.14 -48.9607 1715.39 -48.9607L1745.24 -48.9607C1746.08 -48.9607 1746.76 -48.2777 1746.76 -47.4361V-2.42346C1746.76 -1.60627 1746.12 -0.935425 1745.31 -0.898834H1700.14C1699.29 -0.898834 1698.61 -1.58188 1698.61 -2.42346ZM1641.3 54.7739V24.9891C1641.3 15.756 1648.83 8.23666 1658.08 8.23666L1745.24 8.23663C1746.08 8.23663 1746.76 8.91964 1746.76 9.76123V54.7739C1746.76 55.6155 1746.08 56.2985 1745.24 56.2985L1642.83 56.2985C1641.98 56.2985 1641.3 55.6155 1641.3 54.7739ZM1813.22 9.76123C1813.22 8.91964 1813.91 8.23657 1814.75 8.23657H1844.59C1853.84 8.23657 1861.38 15.756 1861.38 24.989V54.7739C1861.38 55.6155 1860.69 56.2985 1859.85 56.2985H1830.01C1820.76 56.2985 1813.22 48.7791 1813.22 39.5461V9.76123ZM1755.92 54.7739V-47.4361C1755.92 -48.2777 1756.6 -48.9607 1757.45 -48.9607H1787.29C1796.54 -48.9607 1804.07 -41.4475 1804.07 -32.2083V54.7739C1804.07 55.6155 1803.39 56.2985 1802.55 56.2985H1757.45C1756.6 56.2985 1755.92 55.6155 1755.92 54.7739ZM1469.38 -2.42343V-32.2083C1469.38 -41.4475 1476.91 -48.9607 1486.16 -48.9607H1516.01C1516.85 -48.9607 1517.53 -48.2777 1517.53 -47.4361V-2.42346C1517.53 -1.60627 1516.89 -0.935394 1516.08 -0.898804H1470.91C1470.06 -0.898804 1469.38 -1.58185 1469.38 -2.42343ZM1412.07 54.7739V24.9891C1412.07 15.7561 1419.6 8.23666 1428.85 8.23666H1516.01C1516.85 8.23666 1517.53 8.91967 1517.53 9.76126V54.7739C1517.53 55.6155 1516.85 56.2985 1516.01 56.2985H1413.6C1412.75 56.2985 1412.07 55.6155 1412.07 54.7739ZM1583.99 9.76126C1583.99 8.91967 1584.67 8.23666 1585.52 8.23666H1615.36C1624.61 8.23666 1632.15 15.756 1632.15 24.9891V54.7739C1632.15 55.6155 1631.46 56.2985 1630.62 56.2985H1600.78C1591.52 56.2985 1583.99 48.7792 1583.99 39.5461V9.76126ZM1526.69 54.7739V-47.4361C1526.69 -48.2777 1527.37 -48.9607 1528.21 -48.9607L1558.06 -48.9607C1567.31 -48.9607 1574.84 -41.4475 1574.84 -32.2083V54.7739C1574.84 55.6155 1574.16 56.2985 1573.32 56.2985H1528.21C1527.37 56.2985 1526.69 55.6155 1526.69 54.7739ZM1240.15 -2.42343V-32.2083C1240.15 -41.4474 1247.68 -48.9607 1256.93 -48.9607H1286.78C1287.62 -48.9607 1288.3 -48.2777 1288.3 -47.4361V-2.42343C1288.3 -1.60624 1287.66 -0.935364 1286.85 -0.898773H1241.67C1240.83 -0.898773 1240.15 -1.58185 1240.15 -2.42343ZM1182.84 54.774V24.9892C1182.84 15.7561 1190.37 8.2367 1199.62 8.23669H1286.78C1287.62 8.23669 1288.3 8.91967 1288.3 9.76126V54.774C1288.3 55.6155 1287.62 56.2986 1286.78 56.2986H1184.37C1183.52 56.2986 1182.84 55.6155 1182.84 54.774ZM1354.76 9.76126C1354.76 8.91967 1355.44 8.23666 1356.29 8.23666H1386.13C1395.38 8.23666 1402.92 15.7561 1402.92 24.9891V54.7739C1402.92 55.6155 1402.23 56.2985 1401.39 56.2985H1371.54C1362.29 56.2985 1354.76 48.7792 1354.76 39.5461V9.76126ZM1297.46 54.774V-47.4361C1297.46 -48.2777 1298.14 -48.9607 1298.98 -48.9607H1328.83C1338.08 -48.9607 1345.61 -41.4475 1345.61 -32.2083V54.774C1345.61 55.6155 1344.93 56.2985 1344.08 56.2985H1298.98C1298.14 56.2985 1297.46 55.6155 1297.46 54.774ZM1010.92 -2.4234V-32.2083C1010.92 -41.4474 1018.45 -48.9607 1027.7 -48.9607H1057.54C1058.39 -48.9607 1059.07 -48.2777 1059.07 -47.4361V-2.4234C1059.07 -1.60621 1058.42 -0.935364 1057.62 -0.898773H1012.44C1011.6 -0.898773 1010.92 -1.58181 1010.92 -2.4234ZM953.607 54.774V24.9892C953.607 15.7561 961.141 8.23673 970.392 8.23672L1057.54 8.23669C1058.39 8.23669 1059.07 8.91971 1059.07 9.76129V54.774C1059.07 55.6155 1058.39 56.2986 1057.54 56.2986H955.134C954.291 56.2986 953.607 55.6156 953.607 54.774ZM1125.53 9.76129C1125.53 8.91971 1126.21 8.23669 1127.06 8.23669H1156.9C1166.15 8.23669 1173.68 15.7561 1173.68 24.9892V54.774C1173.68 55.6155 1173 56.2986 1172.16 56.2986H1142.31C1133.06 56.2986 1125.53 48.7792 1125.53 39.5461V9.76129ZM1068.23 54.774V-47.4361C1068.23 -48.2777 1068.91 -48.9607 1069.75 -48.9607H1099.6C1108.85 -48.9607 1116.38 -41.4474 1116.38 -32.2083V54.774C1116.38 55.6155 1115.7 56.2986 1114.85 56.2986H1069.75C1068.91 56.2986 1068.23 55.6155 1068.23 54.774ZM781.685 -2.42337V-32.2082C781.685 -41.4474 789.219 -48.9606 798.47 -48.9606H828.313C829.156 -48.9606 829.841 -48.2777 829.841 -47.4361V-2.4234C829.841 -1.60621 829.193 -0.935333 828.387 -0.898743H783.213C782.369 -0.898743 781.685 -1.58178 781.685 -2.42337ZM724.376 54.774V24.9892C724.376 15.7561 731.91 8.23673 741.161 8.23672H828.313C829.156 8.23672 829.841 8.91974 829.841 9.76132V54.774C829.841 55.6156 829.156 56.2986 828.313 56.2986H725.903C725.06 56.2986 724.376 55.6156 724.376 54.774ZM896.303 9.76132C896.303 8.91974 896.988 8.23672 897.831 8.23672H927.674C936.925 8.23672 944.459 15.7561 944.459 24.9892V54.774C944.459 55.6156 943.775 56.2986 942.932 56.2986H913.089C903.838 56.2986 896.303 48.7792 896.303 39.5462V9.76132ZM838.994 54.774V-47.4361C838.994 -48.2777 839.678 -48.9606 840.522 -48.9606L870.365 -48.9607C879.616 -48.9607 887.15 -41.4474 887.15 -32.2083V54.774C887.15 55.6156 886.466 56.2986 885.623 56.2986H840.522C839.678 56.2986 838.994 55.6156 838.994 54.774ZM1698.61 -174.009V-203.794C1698.61 -213.033 1706.14 -220.547 1715.39 -220.547L1745.24 -220.547C1746.08 -220.547 1746.76 -219.864 1746.76 -219.022V-174.009C1746.76 -173.192 1746.12 -172.521 1745.31 -172.485H1700.14C1699.29 -172.485 1698.61 -173.168 1698.61 -174.009ZM1641.3 -116.818V-146.603C1641.3 -155.836 1648.83 -163.355 1658.08 -163.355L1745.24 -163.355C1746.08 -163.355 1746.76 -162.672 1746.76 -161.831V-116.818C1746.76 -115.977 1746.08 -115.294 1745.24 -115.294L1642.83 -115.294C1641.98 -115.294 1641.3 -115.977 1641.3 -116.818ZM1813.22 -161.831C1813.22 -162.673 1813.91 -163.356 1814.75 -163.356L1844.59 -163.356C1853.84 -163.356 1861.38 -155.836 1861.38 -146.603V-116.818C1861.38 -115.977 1860.69 -115.294 1859.85 -115.294H1830.01C1820.76 -115.294 1813.22 -122.813 1813.22 -132.046V-161.831ZM1755.92 -116.818V-219.028C1755.92 -219.87 1756.6 -220.553 1757.45 -220.553L1787.29 -220.553C1796.54 -220.553 1804.07 -213.04 1804.07 -203.8V-116.818C1804.07 -115.977 1803.39 -115.294 1802.55 -115.294H1757.45C1756.6 -115.294 1755.92 -115.977 1755.92 -116.818ZM1469.38 -174.009V-203.794C1469.38 -213.033 1476.91 -220.547 1486.16 -220.547L1516.01 -220.547C1516.85 -220.547 1517.53 -219.864 1517.53 -219.022V-174.009C1517.53 -173.192 1516.89 -172.521 1516.08 -172.485L1470.91 -172.485C1470.06 -172.485 1469.38 -173.168 1469.38 -174.009ZM1412.07 -116.818V-146.603C1412.07 -155.836 1419.6 -163.355 1428.85 -163.355L1516.01 -163.355C1516.85 -163.355 1517.53 -162.672 1517.53 -161.831V-116.818C1517.53 -115.977 1516.85 -115.294 1516.01 -115.294L1413.6 -115.294C1412.75 -115.294 1412.07 -115.977 1412.07 -116.818ZM1583.99 -161.831C1583.99 -162.672 1584.67 -163.355 1585.52 -163.355H1615.36C1624.61 -163.355 1632.15 -155.836 1632.15 -146.603V-116.818C1632.15 -115.977 1631.46 -115.294 1630.62 -115.294H1600.78C1591.52 -115.294 1583.99 -122.813 1583.99 -132.046V-161.831ZM1526.69 -116.818V-219.028C1526.69 -219.87 1527.37 -220.553 1528.21 -220.553L1558.06 -220.553C1567.31 -220.553 1574.84 -213.04 1574.84 -203.8V-116.818C1574.84 -115.977 1574.16 -115.294 1573.32 -115.294H1528.21C1527.37 -115.294 1526.69 -115.977 1526.69 -116.818ZM1240.15 -174.009V-203.794C1240.15 -213.033 1247.68 -220.547 1256.93 -220.547H1286.78C1287.62 -220.547 1288.3 -219.864 1288.3 -219.022V-174.009C1288.3 -173.192 1287.66 -172.521 1286.85 -172.485L1241.67 -172.485C1240.83 -172.485 1240.15 -173.168 1240.15 -174.009ZM1182.84 -116.818V-146.603C1182.84 -155.836 1190.37 -163.355 1199.62 -163.355L1286.78 -163.355C1287.62 -163.355 1288.3 -162.672 1288.3 -161.831V-116.818C1288.3 -115.977 1287.62 -115.294 1286.78 -115.294H1184.37C1183.52 -115.294 1182.84 -115.977 1182.84 -116.818ZM1354.76 -161.831C1354.76 -162.672 1355.44 -163.355 1356.29 -163.355H1386.13C1395.38 -163.355 1402.92 -155.836 1402.92 -146.603V-116.818C1402.92 -115.977 1402.23 -115.294 1401.39 -115.294H1371.54C1362.29 -115.294 1354.76 -122.813 1354.76 -132.046V-161.831ZM1297.46 -116.818V-219.028C1297.46 -219.87 1298.14 -220.553 1298.98 -220.553L1328.83 -220.553C1338.08 -220.553 1345.61 -213.04 1345.61 -203.8V-116.818C1345.61 -115.977 1344.93 -115.294 1344.08 -115.294L1298.98 -115.294C1298.14 -115.294 1297.46 -115.977 1297.46 -116.818ZM1010.92 -174.009V-203.794C1010.92 -213.033 1018.45 -220.547 1027.7 -220.547L1057.54 -220.547C1058.39 -220.547 1059.07 -219.864 1059.07 -219.022V-174.009C1059.07 -173.192 1058.42 -172.521 1057.62 -172.485H1012.44C1011.6 -172.485 1010.92 -173.168 1010.92 -174.009ZM953.607 -116.818V-146.603C953.607 -155.836 961.141 -163.355 970.392 -163.355L1057.54 -163.355C1058.39 -163.355 1059.07 -162.672 1059.07 -161.831V-116.818C1059.07 -115.977 1058.39 -115.294 1057.54 -115.294L955.134 -115.294C954.291 -115.294 953.607 -115.977 953.607 -116.818ZM1125.53 -161.831C1125.53 -162.672 1126.21 -163.355 1127.06 -163.355L1156.9 -163.355C1166.15 -163.355 1173.68 -155.836 1173.68 -146.603V-116.818C1173.68 -115.977 1173 -115.294 1172.16 -115.294L1142.31 -115.294C1133.06 -115.294 1125.53 -122.813 1125.53 -132.046V-161.831ZM1068.23 -116.818V-219.028C1068.23 -219.87 1068.91 -220.553 1069.75 -220.553H1099.6C1108.85 -220.553 1116.38 -213.04 1116.38 -203.8V-116.818C1116.38 -115.977 1115.7 -115.294 1114.85 -115.294H1069.75C1068.91 -115.294 1068.23 -115.977 1068.23 -116.818ZM781.685 -174.009V-203.794C781.685 -213.033 789.219 -220.547 798.47 -220.547L828.313 -220.547C829.156 -220.547 829.841 -219.864 829.841 -219.022V-174.009C829.841 -173.192 829.193 -172.521 828.387 -172.485L783.213 -172.485C782.369 -172.485 781.685 -173.168 781.685 -174.009ZM724.376 -116.818V-146.603C724.376 -155.836 731.91 -163.355 741.161 -163.355L828.313 -163.355C829.156 -163.355 829.841 -162.672 829.841 -161.831V-116.818C829.841 -115.976 829.156 -115.294 828.313 -115.294L725.903 -115.293C725.06 -115.293 724.376 -115.976 724.376 -116.818ZM896.303 -161.831C896.303 -162.672 896.988 -163.355 897.831 -163.355H927.674C936.925 -163.355 944.459 -155.836 944.459 -146.603V-116.818C944.459 -115.977 943.775 -115.294 942.932 -115.294H913.089C903.838 -115.294 896.303 -122.813 896.303 -132.046V-161.831ZM838.994 -116.818V-219.028C838.994 -219.87 839.678 -220.553 840.522 -220.553L870.365 -220.553C879.616 -220.553 887.15 -213.039 887.15 -203.8V-116.818C887.15 -115.976 886.466 -115.294 885.623 -115.294H840.522C839.678 -115.294 838.994 -115.976 838.994 -116.818ZM1001.77 124.15V153.935C1001.77 163.174 994.235 170.687 984.984 170.687H955.14C954.297 170.687 953.613 170.004 953.613 169.163V124.15C953.613 123.333 954.261 122.662 955.067 122.625H1000.24C1001.08 122.625 1001.77 123.308 1001.77 124.15ZM1059.08 66.9526V96.7374C1059.08 105.97 1051.54 113.49 1042.29 113.49H955.14C954.297 113.49 953.613 112.807 953.613 111.965V66.9526C953.613 66.111 954.297 65.428 955.14 65.428L1057.55 65.4279C1058.39 65.4279 1059.08 66.111 1059.08 66.9526ZM887.156 111.965C887.156 112.807 886.472 113.49 885.629 113.49H855.786C846.534 113.49 839 105.97 839 96.7374V66.9526C839 66.1111 839.685 65.428 840.528 65.428H870.371C879.622 65.428 887.156 72.9474 887.156 82.1804V111.965ZM944.466 66.9526V169.163C944.466 170.004 943.781 170.687 942.938 170.687H913.095C903.844 170.687 896.31 163.174 896.31 153.935V66.9526C896.31 66.111 896.994 65.428 897.837 65.428L942.938 65.428C943.781 65.428 944.466 66.111 944.466 66.9526ZM1231 124.15V153.935C1231 163.174 1223.47 170.687 1214.21 170.687H1184.37C1183.53 170.687 1182.84 170.004 1182.84 169.163V124.15C1182.84 123.333 1183.49 122.662 1184.3 122.625H1229.47C1230.32 122.625 1231 123.308 1231 124.15ZM1288.31 66.9526V96.7374C1288.31 105.97 1280.77 113.49 1271.52 113.49L1184.37 113.49C1183.53 113.49 1182.84 112.807 1182.84 111.965V66.9526C1182.84 66.111 1183.53 65.4279 1184.37 65.4279H1286.78C1287.62 65.4279 1288.31 66.111 1288.31 66.9526ZM1116.39 111.965C1116.39 112.807 1115.7 113.49 1114.86 113.49H1085.02C1075.77 113.49 1068.23 105.97 1068.23 96.7374V66.9526C1068.23 66.111 1068.92 65.4279 1069.76 65.4279H1099.6C1108.85 65.4279 1116.39 72.9474 1116.39 82.1804V111.965ZM1173.7 66.9526V169.163C1173.7 170.004 1173.01 170.687 1172.17 170.687H1142.33C1133.07 170.687 1125.54 163.174 1125.54 153.935V66.9526C1125.54 66.111 1126.23 65.428 1127.07 65.428H1172.17C1173.01 65.428 1173.7 66.111 1173.7 66.9526ZM1460.23 124.15V153.935C1460.23 163.174 1452.7 170.687 1443.45 170.687H1413.6C1412.76 170.687 1412.07 170.004 1412.07 169.163V124.15C1412.07 123.333 1412.72 122.662 1413.53 122.625H1458.7C1459.55 122.625 1460.23 123.308 1460.23 124.15ZM1517.54 66.9526V96.7374C1517.54 105.97 1510.01 113.49 1500.75 113.49H1413.6C1412.76 113.49 1412.07 112.807 1412.07 111.965V66.9526C1412.07 66.111 1412.76 65.4279 1413.6 65.4279H1516.01C1516.86 65.4279 1517.54 66.111 1517.54 66.9526ZM1345.62 111.965C1345.62 112.807 1344.93 113.49 1344.09 113.49H1314.25C1305 113.49 1297.46 105.97 1297.46 96.7374V66.9526C1297.46 66.111 1298.15 65.4279 1298.99 65.4279H1328.83C1338.08 65.4279 1345.62 72.9473 1345.62 82.1804V111.965ZM1402.93 66.9526V169.163C1402.93 170.004 1402.24 170.687 1401.4 170.687H1371.56C1362.31 170.687 1354.77 163.174 1354.77 153.935L1354.77 66.9526C1354.77 66.111 1355.46 65.428 1356.3 65.428H1401.4C1402.24 65.428 1402.93 66.111 1402.93 66.9526ZM1689.46 124.15V153.935C1689.46 163.174 1681.93 170.687 1672.68 170.687H1642.83C1641.99 170.687 1641.31 170.004 1641.31 169.163V124.15C1641.31 123.333 1641.95 122.662 1642.76 122.625H1687.93C1688.78 122.625 1689.46 123.308 1689.46 124.15ZM1746.77 66.9525V96.7373C1746.77 105.97 1739.24 113.49 1729.99 113.49H1642.83C1641.99 113.49 1641.31 112.807 1641.31 111.965V66.9525C1641.31 66.111 1641.99 65.4279 1642.83 65.4279L1745.24 65.4279C1746.09 65.4279 1746.77 66.111 1746.77 66.9525ZM1574.85 111.965C1574.85 112.807 1574.17 113.49 1573.32 113.49H1543.48C1534.23 113.49 1526.69 105.97 1526.69 96.7374V66.9526C1526.69 66.111 1527.38 65.4279 1528.22 65.4279H1558.06C1567.32 65.4279 1574.85 72.9473 1574.85 82.1804V111.965ZM1632.16 66.9525V169.163C1632.16 170.004 1631.47 170.687 1630.63 170.687H1600.79C1591.54 170.687 1584 163.174 1584 153.935V66.9525C1584 66.111 1584.69 65.428 1585.53 65.428H1630.63C1631.47 65.428 1632.16 66.111 1632.16 66.9525ZM1918.69 124.15V153.935C1918.69 163.174 1911.16 170.687 1901.91 170.687H1872.06C1871.22 170.687 1870.54 170.004 1870.54 169.163V124.15C1870.54 123.333 1871.18 122.662 1871.99 122.625H1917.17C1918.01 122.625 1918.7 123.308 1918.7 124.15H1918.69ZM1976 66.9525V96.7373C1976 105.97 1968.47 113.49 1959.22 113.49L1872.06 113.49C1871.22 113.49 1870.54 112.807 1870.54 111.965V66.9525C1870.54 66.111 1871.22 65.4279 1872.06 65.4279H1974.47C1975.32 65.4279 1976 66.1109 1976 66.9525ZM1804.08 111.965C1804.08 112.807 1803.4 113.49 1802.55 113.49H1772.71C1763.46 113.49 1755.92 105.97 1755.92 96.7373V66.9525C1755.92 66.111 1756.61 65.4279 1757.45 65.4279H1787.3C1796.55 65.4279 1804.08 72.9473 1804.08 82.1804V111.965ZM1861.39 66.9525V169.163C1861.39 170.004 1860.71 170.687 1859.86 170.687H1830.02C1820.77 170.687 1813.23 163.174 1813.23 153.935V66.9525C1813.23 66.111 1813.92 65.4279 1814.76 65.4279H1859.86C1860.71 65.4279 1861.39 66.111 1861.39 66.9525ZM1001.77 -47.4361V-17.6512C1001.77 -8.41206 994.235 -0.898743 984.984 -0.898743H955.14C954.297 -0.898743 953.613 -1.58181 953.613 -2.4234V-47.4361C953.613 -48.2533 954.26 -48.9241 955.067 -48.9607H1000.24C1001.08 -48.9607 1001.77 -48.2777 1001.77 -47.4361ZM1059.08 -104.633V-74.8486C1059.08 -65.6155 1051.54 -58.0962 1042.29 -58.0962H955.14C954.297 -58.0962 953.613 -58.7792 953.613 -59.6208V-104.633C953.613 -105.475 954.297 -106.158 955.14 -106.158L1057.55 -106.158C1058.39 -106.158 1059.08 -105.475 1059.08 -104.633ZM887.156 -59.6208C887.156 -58.7792 886.472 -58.0962 885.629 -58.0962H855.786C846.534 -58.0962 839 -65.6155 839 -74.8486V-104.633C839 -105.475 839.685 -106.158 840.528 -106.158H870.371C879.622 -106.158 887.156 -98.6386 887.156 -89.4056V-59.6208ZM944.466 -104.633V-2.4234C944.466 -1.58181 943.781 -0.898743 942.938 -0.898743H913.095C903.844 -0.898742 896.31 -8.41206 896.31 -17.6512V-104.633C896.31 -105.475 896.994 -106.158 897.837 -106.158H942.938C943.781 -106.158 944.466 -105.475 944.466 -104.633ZM1231 -47.4361V-17.6512C1231 -8.41209 1223.47 -0.898774 1214.21 -0.898773H1184.37C1183.53 -0.898773 1182.84 -1.58185 1182.84 -2.42343V-47.4361C1182.84 -48.2533 1183.49 -48.9241 1184.3 -48.9607L1229.47 -48.9607C1230.32 -48.9607 1231 -48.2777 1231 -47.4361ZM1288.31 -104.633V-74.8486C1288.31 -65.6156 1280.77 -58.0962 1271.52 -58.0962H1184.37C1183.53 -58.0962 1182.84 -58.7792 1182.84 -59.6208V-104.633C1182.84 -105.475 1183.53 -106.158 1184.37 -106.158H1286.78C1287.62 -106.158 1288.31 -105.475 1288.31 -104.633ZM1116.39 -59.6208C1116.39 -58.7792 1115.7 -58.0962 1114.86 -58.0962H1085.02C1075.77 -58.0962 1068.23 -65.6155 1068.23 -74.8486V-104.633C1068.23 -105.475 1068.92 -106.158 1069.76 -106.158H1099.6C1108.85 -106.158 1116.39 -98.6387 1116.39 -89.4056V-59.6208ZM1173.7 -104.633V-2.42343C1173.7 -1.58185 1173.01 -0.898773 1172.17 -0.898773H1142.33C1133.07 -0.898772 1125.54 -8.41206 1125.54 -17.6512V-104.633C1125.54 -105.475 1126.23 -106.158 1127.07 -106.158L1172.17 -106.158C1173.01 -106.158 1173.7 -105.475 1173.7 -104.633ZM1460.23 -47.4361V-17.6512C1460.23 -8.41209 1452.7 -0.898805 1443.45 -0.898804H1413.6C1412.76 -0.898804 1412.07 -1.58185 1412.07 -2.42343V-47.4361C1412.07 -48.2533 1412.72 -48.9241 1413.53 -48.9607H1458.7C1459.55 -48.9607 1460.23 -48.2777 1460.23 -47.4361ZM1517.54 -104.633V-74.8486C1517.54 -65.6156 1510.01 -58.0962 1500.75 -58.0962L1413.6 -58.0962C1412.76 -58.0962 1412.07 -58.7792 1412.07 -59.6208V-104.633C1412.07 -105.475 1412.76 -106.158 1413.6 -106.158L1516.01 -106.158C1516.86 -106.158 1517.54 -105.475 1517.54 -104.633ZM1345.62 -59.6208C1345.62 -58.7792 1344.93 -58.0962 1344.09 -58.0962H1314.25C1305 -58.0962 1297.46 -65.6156 1297.46 -74.8486V-104.633C1297.46 -105.475 1298.15 -106.158 1298.99 -106.158L1328.83 -106.158C1338.08 -106.158 1345.62 -98.6387 1345.62 -89.4056V-59.6208ZM1402.93 -104.633V-2.42343C1402.93 -1.58185 1402.24 -0.898804 1401.4 -0.898804H1371.56C1362.31 -0.898803 1354.77 -8.41209 1354.77 -17.6512V-104.633C1354.77 -105.475 1355.46 -106.158 1356.3 -106.158H1401.4C1402.24 -106.158 1402.93 -105.475 1402.93 -104.633ZM1689.46 -47.4361V-17.6513C1689.46 -8.41212 1681.93 -0.898805 1672.68 -0.898804H1642.83C1641.99 -0.898804 1641.31 -1.58188 1641.31 -2.42346V-47.4361C1641.31 -48.2533 1641.95 -48.9241 1642.76 -48.9607H1687.93C1688.78 -48.9607 1689.46 -48.2777 1689.46 -47.4361ZM1746.77 -104.633V-74.8487C1746.77 -65.6156 1739.24 -58.0963 1729.99 -58.0963H1642.83C1641.99 -58.0963 1641.31 -58.7792 1641.31 -59.6208V-104.633C1641.31 -105.475 1641.99 -106.158 1642.83 -106.158L1745.24 -106.158C1746.09 -106.158 1746.77 -105.475 1746.77 -104.633ZM1574.85 -59.6208C1574.85 -58.7792 1574.17 -58.0962 1573.32 -58.0962H1543.48C1534.23 -58.0962 1526.69 -65.6156 1526.69 -74.8486V-104.633C1526.69 -105.475 1527.38 -106.158 1528.22 -106.158H1558.06C1567.32 -106.158 1574.85 -98.6387 1574.85 -89.4056V-59.6208ZM1632.16 -104.633V-2.42346C1632.16 -1.58188 1631.47 -0.898804 1630.63 -0.898804H1600.79C1591.54 -0.898803 1584 -8.41212 1584 -17.6513V-104.633C1584 -105.475 1584.69 -106.158 1585.53 -106.158H1630.63C1631.47 -106.158 1632.16 -105.475 1632.16 -104.633ZM1918.69 -47.4362V-17.6513C1918.69 -8.41215 1911.16 -0.898835 1901.91 -0.898834H1872.06C1871.22 -0.898834 1870.54 -1.58191 1870.54 -2.42349V-47.4362C1870.54 -48.2533 1871.18 -48.9241 1871.99 -48.9607L1917.17 -48.9608C1918.01 -48.9608 1918.7 -48.2777 1918.7 -47.4362H1918.69ZM1976 -104.633V-74.8487C1976 -65.6156 1968.47 -58.0963 1959.22 -58.0963H1872.06C1871.22 -58.0963 1870.54 -58.7793 1870.54 -59.6208V-104.633C1870.54 -105.475 1871.22 -106.158 1872.06 -106.158H1974.47C1975.32 -106.158 1976 -105.475 1976 -104.633ZM1804.08 -59.6208C1804.08 -58.7793 1803.4 -58.0963 1802.55 -58.0963H1772.71C1763.46 -58.0963 1755.92 -65.6156 1755.92 -74.8487V-104.633C1755.92 -105.475 1756.61 -106.158 1757.45 -106.158H1787.3C1796.55 -106.158 1804.08 -98.6387 1804.08 -89.4057V-59.6208ZM1861.39 -104.633V-2.42349C1861.39 -1.58191 1860.71 -0.898834 1859.86 -0.898834H1830.02C1820.77 -0.898833 1813.23 -8.41212 1813.23 -17.6513V-104.633C1813.23 -105.475 1813.92 -106.158 1814.76 -106.158L1859.86 -106.158C1860.71 -106.158 1861.39 -105.475 1861.39 -104.633ZM1001.77 -219.022V-189.237C1001.77 -179.998 994.235 -172.485 984.984 -172.485H955.14C954.297 -172.485 953.613 -173.168 953.613 -174.009V-219.022C953.613 -219.839 954.26 -220.51 955.067 -220.547L1000.24 -220.547C1001.08 -220.547 1001.77 -219.864 1001.77 -219.022ZM1059.08 -276.219V-246.435C1059.08 -237.202 1051.54 -229.682 1042.29 -229.682L955.14 -229.682C954.297 -229.682 953.613 -230.365 953.613 -231.207V-276.219C953.613 -277.061 954.297 -277.744 955.14 -277.744L1057.55 -277.744C1058.39 -277.744 1059.08 -277.061 1059.08 -276.219ZM887.156 -231.207C887.156 -230.365 886.472 -229.682 885.629 -229.682L855.786 -229.682C846.534 -229.682 839 -237.202 839 -246.435V-276.219C839 -277.061 839.685 -277.744 840.528 -277.744L870.371 -277.744C879.622 -277.744 887.156 -270.225 887.156 -260.992V-231.207ZM944.466 -276.219V-174.009C944.466 -173.168 943.781 -172.485 942.938 -172.485H913.095C903.844 -172.485 896.31 -179.998 896.31 -189.237V-276.219C896.31 -277.061 896.994 -277.744 897.837 -277.744L942.938 -277.744C943.781 -277.744 944.466 -277.061 944.466 -276.219ZM1231 -219.022V-189.237C1231 -179.998 1223.47 -172.485 1214.21 -172.485H1184.37C1183.53 -172.485 1182.84 -173.168 1182.84 -174.009V-219.022C1182.84 -219.839 1183.49 -220.51 1184.3 -220.547L1229.47 -220.547C1230.32 -220.547 1231 -219.864 1231 -219.022ZM1288.31 -276.219V-246.435C1288.31 -237.202 1280.77 -229.682 1271.52 -229.682L1184.37 -229.682C1183.53 -229.682 1182.84 -230.365 1182.84 -231.207V-276.219C1182.84 -277.061 1183.53 -277.744 1184.37 -277.744L1286.78 -277.744C1287.62 -277.744 1288.31 -277.061 1288.31 -276.219ZM1116.39 -231.207C1116.39 -230.365 1115.7 -229.682 1114.86 -229.682L1085.02 -229.682C1075.77 -229.682 1068.23 -237.202 1068.23 -246.435V-276.219C1068.23 -277.061 1068.92 -277.744 1069.76 -277.744L1099.6 -277.744C1108.85 -277.744 1116.39 -270.225 1116.39 -260.992V-231.207ZM1173.7 -276.219V-174.009C1173.7 -173.168 1173.01 -172.485 1172.17 -172.485L1142.33 -172.485C1133.07 -172.485 1125.54 -179.998 1125.54 -189.237V-276.219C1125.54 -277.061 1126.23 -277.744 1127.07 -277.744L1172.17 -277.744C1173.01 -277.744 1173.7 -277.061 1173.7 -276.219ZM1460.23 -219.022V-189.237C1460.23 -179.998 1452.7 -172.485 1443.45 -172.485L1413.6 -172.485C1412.76 -172.485 1412.07 -173.168 1412.07 -174.009V-219.022C1412.07 -219.839 1412.72 -220.51 1413.53 -220.547L1458.7 -220.547C1459.55 -220.547 1460.23 -219.864 1460.23 -219.022ZM1517.54 -276.22V-246.435C1517.54 -237.202 1510.01 -229.682 1500.75 -229.682L1413.6 -229.682C1412.76 -229.682 1412.07 -230.365 1412.07 -231.207V-276.22C1412.07 -277.061 1412.76 -277.744 1413.6 -277.744L1516.01 -277.744C1516.86 -277.744 1517.54 -277.061 1517.54 -276.22ZM1345.62 -231.207C1345.62 -230.365 1344.93 -229.682 1344.09 -229.682H1314.25C1305 -229.682 1297.46 -237.202 1297.46 -246.435V-276.219C1297.46 -277.061 1298.15 -277.744 1298.99 -277.744L1328.83 -277.744C1338.08 -277.744 1345.62 -270.225 1345.62 -260.992V-231.207ZM1402.93 -276.22V-174.009C1402.93 -173.168 1402.24 -172.485 1401.4 -172.485H1371.56C1362.31 -172.485 1354.77 -179.998 1354.77 -189.237V-276.219C1354.77 -277.061 1355.46 -277.744 1356.3 -277.744L1401.4 -277.744C1402.24 -277.744 1402.93 -277.061 1402.93 -276.22ZM1689.46 -219.022V-189.237C1689.46 -179.998 1681.93 -172.485 1672.68 -172.485H1642.83C1641.99 -172.485 1641.31 -173.168 1641.31 -174.009V-219.022C1641.31 -219.839 1641.95 -220.51 1642.76 -220.547L1687.93 -220.547C1688.78 -220.547 1689.46 -219.864 1689.46 -219.022ZM1746.77 -276.22V-246.435C1746.77 -237.202 1739.24 -229.682 1729.99 -229.682L1642.83 -229.682C1641.99 -229.682 1641.31 -230.365 1641.31 -231.207V-276.22C1641.31 -277.061 1641.99 -277.744 1642.83 -277.744L1745.24 -277.744C1746.09 -277.744 1746.77 -277.061 1746.77 -276.22ZM1574.85 -231.207C1574.85 -230.365 1574.16 -229.682 1573.32 -229.682H1543.48C1534.23 -229.682 1526.69 -237.202 1526.69 -246.435V-276.22C1526.69 -277.061 1527.38 -277.744 1528.22 -277.744L1558.06 -277.744C1567.32 -277.744 1574.85 -270.225 1574.85 -260.992V-231.207ZM1632.16 -276.22V-174.009C1632.16 -173.168 1631.47 -172.485 1630.63 -172.485H1600.79C1591.54 -172.485 1584 -179.998 1584 -189.237V-276.22C1584 -277.061 1584.69 -277.744 1585.53 -277.744L1630.63 -277.744C1631.47 -277.744 1632.16 -277.061 1632.16 -276.22ZM1918.69 -219.022V-189.237C1918.69 -179.998 1911.16 -172.485 1901.91 -172.485H1872.06C1871.22 -172.485 1870.54 -173.168 1870.54 -174.009V-219.022C1870.54 -219.839 1871.18 -220.51 1871.99 -220.547L1917.17 -220.547C1918.01 -220.547 1918.7 -219.864 1918.7 -219.022H1918.69ZM1976 -276.22V-246.435C1976 -237.202 1968.47 -229.682 1959.22 -229.682L1872.06 -229.682C1871.22 -229.682 1870.54 -230.365 1870.54 -231.207V-276.22C1870.54 -277.061 1871.22 -277.744 1872.06 -277.744L1974.47 -277.744C1975.32 -277.744 1976 -277.061 1976 -276.22ZM1804.08 -231.207C1804.08 -230.365 1803.4 -229.682 1802.55 -229.682L1772.71 -229.682C1763.46 -229.682 1755.92 -237.202 1755.92 -246.435V-276.22C1755.92 -277.061 1756.61 -277.744 1757.45 -277.744L1787.3 -277.744C1796.55 -277.744 1804.08 -270.225 1804.08 -260.992V-231.207ZM1861.39 -276.22V-174.009C1861.39 -173.168 1860.71 -172.485 1859.86 -172.485H1830.02C1820.77 -172.485 1813.23 -179.998 1813.23 -189.237V-276.22C1813.23 -277.061 1813.92 -277.744 1814.76 -277.744L1859.86 -277.744C1860.71 -277.744 1861.39 -277.061 1861.39 -276.22ZM552.235 169.163V139.378C552.235 130.139 559.769 122.625 569.021 122.625H598.864C599.707 122.625 600.391 123.308 600.391 124.15V169.163C600.391 169.98 599.744 170.651 598.937 170.687H553.763C552.92 170.687 552.235 170.004 552.235 169.163ZM494.926 226.36V196.575C494.926 187.342 502.46 179.823 511.711 179.823H598.864C599.707 179.823 600.391 180.506 600.391 181.347V226.36C600.391 227.202 599.707 227.885 598.864 227.885H496.454C495.61 227.885 494.926 227.202 494.926 226.36ZM666.848 181.347C666.848 180.506 667.532 179.823 668.375 179.823H698.219C707.47 179.823 715.004 187.342 715.004 196.575V226.36C715.004 227.202 714.319 227.885 713.476 227.885H683.633C674.382 227.885 666.848 220.365 666.848 211.132V181.347ZM609.545 226.36V124.15C609.545 123.308 610.229 122.625 611.072 122.625H640.915C650.167 122.625 657.701 130.139 657.701 139.378V226.36C657.701 227.202 657.016 227.885 656.173 227.885L611.072 227.885C610.229 227.885 609.545 227.202 609.545 226.36ZM323.004 169.163V139.378C323.004 130.139 330.538 122.625 339.79 122.625H369.633C370.476 122.625 371.16 123.308 371.16 124.15V169.163C371.16 169.98 370.513 170.651 369.706 170.687H324.532C323.689 170.687 323.004 170.004 323.004 169.163ZM265.695 226.36V196.575C265.695 187.342 273.229 179.823 282.48 179.823H369.633C370.476 179.823 371.16 180.506 371.16 181.347V226.36C371.16 227.202 370.476 227.885 369.633 227.885H267.223C266.379 227.885 265.695 227.202 265.695 226.36ZM437.617 181.347C437.617 180.506 438.301 179.823 439.144 179.823H468.987C478.239 179.823 485.773 187.342 485.773 196.575V226.36C485.773 227.202 485.088 227.885 484.245 227.885H454.402C445.151 227.885 437.617 220.365 437.617 211.132V181.347ZM380.314 226.36V124.15C380.314 123.308 380.998 122.625 381.841 122.625H411.684C420.935 122.625 428.47 130.139 428.47 139.378V226.36C428.47 227.202 427.785 227.885 426.942 227.885H381.841C380.998 227.885 380.314 227.202 380.314 226.36ZM93.7733 169.163V139.378C93.7733 130.139 101.307 122.625 110.559 122.625H140.402C141.245 122.625 141.929 123.308 141.929 124.15V169.163C141.929 169.98 141.282 170.651 140.475 170.687H95.301C94.4577 170.687 93.7733 170.004 93.7733 169.163ZM36.464 226.36L36.464 196.575C36.464 187.342 43.9981 179.823 53.2493 179.823L140.402 179.823C141.245 179.823 141.929 180.506 141.929 181.347V226.36C141.929 227.202 141.245 227.885 140.402 227.885H37.9916C37.1484 227.885 36.464 227.202 36.464 226.36ZM208.386 181.347C208.386 180.506 209.07 179.823 209.913 179.823H239.756C249.008 179.823 256.542 187.342 256.542 196.575V226.36C256.542 227.202 255.857 227.885 255.014 227.885H225.171C215.92 227.885 208.386 220.365 208.386 211.132V181.347ZM151.083 226.36V124.15C151.083 123.308 151.767 122.625 152.61 122.625H182.453C191.704 122.625 199.239 130.139 199.239 139.378V226.36C199.239 227.202 198.554 227.885 197.711 227.885H152.61C151.767 227.885 151.083 227.202 151.083 226.36ZM-135.458 169.163V139.378C-135.458 130.139 -127.924 122.625 -118.672 122.625H-88.8293C-87.9861 122.625 -87.3018 123.308 -87.3018 124.15V169.163C-87.3018 169.98 -87.9494 170.651 -88.756 170.687H-133.93C-134.773 170.687 -135.458 170.004 -135.458 169.163ZM-192.767 226.36V196.575C-192.767 187.342 -185.233 179.823 -175.982 179.823H-88.8293C-87.9861 179.823 -87.3018 180.506 -87.3018 181.347V226.36C-87.3018 227.202 -87.9861 227.885 -88.8293 227.885H-191.239C-192.083 227.885 -192.767 227.202 -192.767 226.36ZM-20.8452 181.347C-20.8452 180.506 -20.1609 179.823 -19.3176 179.823H10.5255C19.7766 179.823 27.3106 187.342 27.3106 196.575V226.36C27.3106 227.202 26.6263 227.885 25.7831 227.885H-4.06003C-13.3111 227.885 -20.8452 220.365 -20.8452 211.132V181.347ZM-78.1484 226.36V124.15C-78.1484 123.308 -77.4641 122.625 -76.6208 122.625H-46.7777C-37.5266 122.625 -29.9924 130.139 -29.9924 139.378V226.36C-29.9924 227.202 -30.6768 227.885 -31.5201 227.885H-76.6208C-77.4641 227.885 -78.1484 227.202 -78.1484 226.36ZM-364.689 169.163L-364.689 139.378C-364.689 130.139 -357.155 122.625 -347.903 122.625H-318.06C-317.217 122.625 -316.533 123.308 -316.533 124.15L-316.533 169.163C-316.533 169.98 -317.181 170.651 -317.987 170.687H-363.161C-364.004 170.687 -364.689 170.004 -364.689 169.163ZM-421.998 226.36L-421.998 196.575C-421.998 187.342 -414.464 179.823 -405.213 179.823H-318.06C-317.217 179.823 -316.533 180.506 -316.533 181.347V226.36C-316.533 227.202 -317.217 227.885 -318.06 227.885H-420.47C-421.314 227.885 -421.998 227.202 -421.998 226.36ZM-250.07 181.347C-250.07 180.506 -249.386 179.823 -248.542 179.823H-218.699C-209.448 179.823 -201.914 187.342 -201.914 196.575V226.36C-201.914 227.202 -202.599 227.885 -203.442 227.885H-233.285C-242.536 227.885 -250.07 220.365 -250.07 211.132L-250.07 181.347ZM-307.379 226.36L-307.379 124.15C-307.379 123.308 -306.695 122.625 -305.852 122.625H-276.009C-266.758 122.625 -259.224 130.139 -259.224 139.378V226.36C-259.224 227.202 -259.908 227.885 -260.751 227.885H-305.852C-306.695 227.885 -307.379 227.202 -307.379 226.36ZM552.235 -2.42337V-32.2082C552.235 -41.4474 559.769 -48.9606 569.021 -48.9606H598.864C599.707 -48.9606 600.391 -48.2776 600.391 -47.4361V-2.42337C600.391 -1.60618 599.744 -0.935303 598.937 -0.898712H553.763C552.92 -0.898712 552.235 -1.58178 552.235 -2.42337ZM494.926 54.774V24.9892C494.926 15.7562 502.46 8.23676 511.711 8.23676H598.864C599.707 8.23676 600.391 8.91974 600.391 9.76132V54.774C600.391 55.6156 599.707 56.2986 598.864 56.2986H496.454C495.61 56.2986 494.926 55.6156 494.926 54.774ZM666.848 9.76132C666.848 8.91974 667.532 8.23669 668.375 8.23669H698.219C707.47 8.23669 715.004 15.7561 715.004 24.9891V54.774C715.004 55.6156 714.319 56.2986 713.476 56.2986H683.633C674.382 56.2986 666.848 48.7792 666.848 39.5462V9.76132ZM609.545 54.774V-47.4361C609.545 -48.2776 610.229 -48.9606 611.072 -48.9606H640.915C650.167 -48.9606 657.701 -41.4474 657.701 -32.2082V54.774C657.701 55.6156 657.016 56.2986 656.173 56.2986H611.072C610.229 56.2986 609.545 55.6156 609.545 54.774ZM323.004 -2.42334V-32.2082C323.004 -41.4474 330.538 -48.9606 339.79 -48.9606H369.633C370.476 -48.9606 371.16 -48.2776 371.16 -47.436V-2.42334C371.16 -1.60615 370.513 -0.935303 369.706 -0.898712H324.532C323.689 -0.898712 323.004 -1.58175 323.004 -2.42334ZM265.695 54.774V24.9892C265.695 15.7562 273.229 8.23676 282.48 8.23676H369.633C370.476 8.23676 371.16 8.91977 371.16 9.76135V54.774C371.16 55.6156 370.476 56.2986 369.633 56.2986H267.223C266.379 56.2986 265.695 55.6156 265.695 54.774ZM437.617 9.76135C437.617 8.91977 438.301 8.23676 439.144 8.23676H468.987C478.239 8.23675 485.773 15.7562 485.773 24.9892V54.774C485.773 55.6156 485.088 56.2986 484.245 56.2986H454.402C445.151 56.2986 437.617 48.7793 437.617 39.5462V9.76135ZM380.314 54.774L380.314 -47.436C380.314 -48.2776 380.998 -48.9606 381.841 -48.9606H411.684C420.935 -48.9606 428.47 -41.4474 428.47 -32.2082V54.774C428.47 55.6156 427.785 56.2986 426.942 56.2986H381.841C380.998 56.2986 380.314 55.6156 380.314 54.774ZM93.7733 -2.42331V-32.2082C93.7733 -41.4473 101.307 -48.9606 110.559 -48.9606H140.402C141.245 -48.9606 141.929 -48.2776 141.929 -47.436V-2.42334C141.929 -1.60615 141.282 -0.935272 140.475 -0.898682H95.3009C94.4577 -0.898682 93.7733 -1.58172 93.7733 -2.42331ZM36.464 54.774V24.9893C36.464 15.7562 43.9981 8.23679 53.2493 8.23679H140.402C141.245 8.23679 141.929 8.9198 141.929 9.76138V54.774C141.929 55.6156 141.245 56.2986 140.402 56.2986H37.9916C37.1484 56.2986 36.464 55.6156 36.464 54.774ZM208.386 9.76135C208.386 8.91977 209.07 8.23679 209.913 8.23679H239.756C249.008 8.23679 256.542 15.7562 256.542 24.9892V54.774C256.542 55.6156 255.857 56.2986 255.014 56.2986L225.171 56.2986C215.92 56.2986 208.386 48.7793 208.386 39.5462V9.76135ZM151.083 54.774V-47.436C151.083 -48.2776 151.767 -48.9606 152.61 -48.9606H182.453C191.704 -48.9606 199.238 -41.4473 199.238 -32.2082V54.774C199.238 55.6156 198.554 56.2986 197.711 56.2986H152.61C151.767 56.2986 151.083 55.6156 151.083 54.774ZM-135.458 -2.42331V-32.2082C-135.458 -41.4473 -127.924 -48.9606 -118.672 -48.9606H-88.8293C-87.9861 -48.9606 -87.3018 -48.2776 -87.3018 -47.436V-2.42331C-87.3018 -1.60612 -87.9494 -0.935242 -88.756 -0.898651H-133.93C-134.773 -0.898651 -135.458 -1.58172 -135.458 -2.42331ZM-192.767 54.7741V24.9893C-192.767 15.7562 -185.233 8.23682 -175.982 8.23682H-88.8293C-87.9861 8.23682 -87.3018 8.9198 -87.3018 9.76138V54.7741C-87.3018 55.6157 -87.9861 56.2986 -88.8293 56.2986L-191.239 56.2987C-192.083 56.2987 -192.767 55.6157 -192.767 54.7741ZM-20.8453 9.76138C-20.8453 8.9198 -20.1609 8.23679 -19.3177 8.23679H10.5254C19.7765 8.23679 27.3106 15.7562 27.3106 24.9893V54.774C27.3106 55.6156 26.6263 56.2986 25.783 56.2986H-4.06006C-13.3112 56.2986 -20.8453 48.7793 -20.8453 39.5462V9.76138ZM-78.1484 54.7741L-78.1484 -47.436C-78.1484 -48.2776 -77.4641 -48.9606 -76.6208 -48.9606H-46.7777C-37.5266 -48.9606 -29.9924 -41.4473 -29.9924 -32.2082V54.7741C-29.9924 55.6157 -30.6768 56.2986 -31.5201 56.2986H-76.6208C-77.4641 56.2986 -78.1484 55.6157 -78.1484 54.7741ZM-364.689 -2.42328L-364.689 -32.2081C-364.689 -41.4473 -357.155 -48.9606 -347.903 -48.9606H-318.06C-317.217 -48.9606 -316.533 -48.2775 -316.533 -47.436L-316.533 -2.42328C-316.533 -1.60609 -317.181 -0.935242 -317.987 -0.898651H-363.161C-364.004 -0.898651 -364.689 -1.58169 -364.689 -2.42328ZM-421.998 54.7741L-421.998 24.9893C-421.998 15.7562 -414.464 8.23682 -405.213 8.23682H-318.06C-317.217 8.23682 -316.533 8.91983 -316.533 9.76141V54.7741C-316.533 55.6157 -317.217 56.2987 -318.06 56.2987H-420.47C-421.314 56.2987 -421.998 55.6157 -421.998 54.7741ZM-250.07 9.76141C-250.07 8.91983 -249.386 8.23682 -248.543 8.23682H-218.699C-209.448 8.23682 -201.914 15.7562 -201.914 24.9893V54.7741C-201.914 55.6157 -202.599 56.2987 -203.442 56.2987H-233.285C-242.536 56.2987 -250.07 48.7793 -250.07 39.5463L-250.07 9.76141ZM-307.379 54.7741L-307.379 -47.436C-307.379 -48.2775 -306.695 -48.9606 -305.852 -48.9606H-276.009C-266.758 -48.9606 -259.224 -41.4473 -259.224 -32.2081V54.7741C-259.224 55.6157 -259.908 56.2987 -260.751 56.2987H-305.852C-306.695 56.2987 -307.379 55.6157 -307.379 54.7741ZM552.235 -174.009V-203.794C552.235 -213.033 559.769 -220.547 569.021 -220.547L598.864 -220.547C599.707 -220.547 600.391 -219.864 600.391 -219.022V-174.009C600.391 -173.192 599.744 -172.521 598.937 -172.485H553.763C552.92 -172.485 552.235 -173.168 552.235 -174.009ZM494.926 -116.818V-146.603C494.926 -155.836 502.46 -163.355 511.711 -163.355L598.864 -163.355C599.707 -163.355 600.391 -162.672 600.391 -161.831V-116.818C600.391 -115.976 599.707 -115.293 598.864 -115.293H496.454C495.61 -115.293 494.926 -115.976 494.926 -116.818ZM666.848 -161.831C666.848 -162.672 667.532 -163.355 668.375 -163.355L698.219 -163.355C707.47 -163.355 715.004 -155.836 715.004 -146.603L715.004 -116.818C715.004 -115.977 714.319 -115.294 713.476 -115.294H683.633C674.382 -115.294 666.848 -122.813 666.848 -132.046V-161.831ZM609.545 -116.818V-219.028C609.545 -219.87 610.229 -220.553 611.072 -220.553L640.915 -220.553C650.166 -220.553 657.701 -213.039 657.701 -203.8V-116.818C657.701 -115.976 657.016 -115.293 656.173 -115.293L611.072 -115.293C610.229 -115.293 609.545 -115.976 609.545 -116.818ZM323.004 -174.009V-203.794C323.004 -213.033 330.538 -220.547 339.79 -220.547H369.633C370.476 -220.547 371.16 -219.864 371.16 -219.022L371.16 -174.009C371.16 -173.192 370.513 -172.521 369.706 -172.485H324.532C323.689 -172.485 323.004 -173.168 323.004 -174.009ZM265.695 -116.818V-146.603C265.695 -155.836 273.229 -163.355 282.48 -163.355L369.633 -163.355C370.476 -163.355 371.16 -162.672 371.16 -161.831V-116.818C371.16 -115.976 370.476 -115.293 369.633 -115.293L267.223 -115.293C266.379 -115.293 265.695 -115.976 265.695 -116.818ZM437.617 -161.831C437.617 -162.672 438.301 -163.355 439.144 -163.355L468.987 -163.355C478.239 -163.355 485.773 -155.836 485.773 -146.603V-116.818C485.773 -115.976 485.088 -115.293 484.245 -115.293L454.402 -115.293C445.151 -115.293 437.617 -122.813 437.617 -132.046V-161.831ZM380.314 -116.818V-219.028C380.314 -219.87 380.998 -220.553 381.841 -220.553L411.684 -220.553C420.935 -220.553 428.469 -213.039 428.469 -203.8L428.47 -116.818C428.47 -115.976 427.785 -115.293 426.942 -115.293H381.841C380.998 -115.293 380.314 -115.976 380.314 -116.818ZM93.7733 -174.009L93.7733 -203.794C93.7733 -213.033 101.307 -220.547 110.559 -220.547L140.402 -220.547C141.245 -220.547 141.929 -219.864 141.929 -219.022V-174.009C141.929 -173.192 141.282 -172.521 140.475 -172.485L95.3009 -172.485C94.4577 -172.485 93.7733 -173.168 93.7733 -174.009ZM36.464 -116.818L36.464 -146.603C36.464 -155.836 43.9981 -163.355 53.2492 -163.355L140.402 -163.355C141.245 -163.355 141.929 -162.672 141.929 -161.831V-116.818C141.929 -115.976 141.245 -115.293 140.402 -115.293L37.9916 -115.293C37.1484 -115.293 36.464 -115.976 36.464 -116.818ZM208.386 -161.831C208.386 -162.672 209.07 -163.355 209.913 -163.355H239.756C249.008 -163.355 256.542 -155.836 256.542 -146.603V-116.818C256.542 -115.976 255.857 -115.293 255.014 -115.293H225.171C215.92 -115.293 208.386 -122.813 208.386 -132.046V-161.831ZM151.083 -116.818V-219.028C151.083 -219.87 151.767 -220.553 152.61 -220.553H182.453C191.704 -220.553 199.238 -213.039 199.238 -203.8V-116.818C199.238 -115.976 198.554 -115.293 197.711 -115.293H152.61C151.767 -115.293 151.083 -115.976 151.083 -116.818ZM-135.458 -174.009V-203.794C-135.458 -213.033 -127.924 -220.547 -118.672 -220.547L-88.8293 -220.547C-87.9861 -220.547 -87.3018 -219.864 -87.3018 -219.022V-174.009C-87.3018 -173.192 -87.9494 -172.521 -88.756 -172.485H-133.93C-134.773 -172.485 -135.458 -173.168 -135.458 -174.009ZM-192.767 -116.818V-146.603C-192.767 -155.836 -185.233 -163.355 -175.982 -163.355L-88.8293 -163.355C-87.9861 -163.355 -87.3018 -162.672 -87.3018 -161.831V-116.818C-87.3018 -115.976 -87.9861 -115.293 -88.8293 -115.293H-191.239C-192.083 -115.293 -192.767 -115.976 -192.767 -116.818ZM-20.8453 -161.831C-20.8453 -162.672 -20.1609 -163.355 -19.3177 -163.355L10.5254 -163.355C19.7765 -163.355 27.3106 -155.836 27.3106 -146.603V-116.818C27.3106 -115.976 26.6263 -115.293 25.783 -115.293H-4.06006C-13.3112 -115.293 -20.8453 -122.813 -20.8453 -132.046V-161.831ZM-78.1484 -116.818V-219.028C-78.1484 -219.87 -77.4641 -220.553 -76.6209 -220.553L-46.7777 -220.553C-37.5266 -220.553 -29.9925 -213.039 -29.9925 -203.8V-116.818C-29.9925 -115.976 -30.6768 -115.293 -31.5201 -115.293L-76.6208 -115.293C-77.4641 -115.293 -78.1484 -115.976 -78.1484 -116.818ZM-364.689 -174.009L-364.689 -203.794C-364.689 -213.033 -357.155 -220.547 -347.903 -220.547L-318.06 -220.547C-317.217 -220.547 -316.533 -219.864 -316.533 -219.022L-316.533 -174.009C-316.533 -173.192 -317.181 -172.521 -317.987 -172.485L-363.161 -172.485C-364.004 -172.485 -364.689 -173.168 -364.689 -174.009ZM-421.998 -116.818L-421.998 -146.603C-421.998 -155.836 -414.464 -163.355 -405.213 -163.355L-318.06 -163.355C-317.217 -163.355 -316.533 -162.672 -316.533 -161.831V-116.818C-316.533 -115.976 -317.217 -115.293 -318.06 -115.293L-420.47 -115.293C-421.314 -115.293 -421.998 -115.976 -421.998 -116.818ZM-250.07 -161.831C-250.07 -162.672 -249.386 -163.355 -248.543 -163.355H-218.7C-209.448 -163.355 -201.914 -155.836 -201.914 -146.603V-116.818C-201.914 -115.976 -202.599 -115.293 -203.442 -115.293L-233.285 -115.293C-242.536 -115.293 -250.07 -122.813 -250.07 -132.046L-250.07 -161.831ZM-307.379 -116.818L-307.379 -219.028C-307.379 -219.87 -306.695 -220.553 -305.852 -220.553L-276.009 -220.553C-266.758 -220.553 -259.224 -213.039 -259.224 -203.8V-116.818C-259.224 -115.976 -259.908 -115.293 -260.751 -115.293H-305.852C-306.695 -115.293 -307.379 -115.976 -307.379 -116.818ZM-144.605 124.15V153.935C-144.605 163.174 -152.139 170.687 -161.39 170.687H-191.233C-192.076 170.687 -192.761 170.004 -192.761 169.163V124.15C-192.761 123.333 -192.113 122.662 -191.307 122.625L-146.133 122.625C-145.289 122.625 -144.605 123.308 -144.605 124.15ZM-87.2956 66.9527V96.7375C-87.2956 105.971 -94.8297 113.49 -104.081 113.49L-191.233 113.49C-192.076 113.49 -192.761 112.807 -192.761 111.965V66.9527C-192.761 66.1111 -192.076 65.4281 -191.233 65.4281H-88.8232C-87.98 65.4281 -87.2956 66.1111 -87.2956 66.9527ZM-259.217 111.965C-259.217 112.807 -259.902 113.49 -260.745 113.49H-290.588C-299.839 113.49 -307.373 105.971 -307.373 96.7375V66.9527C-307.373 66.1111 -306.689 65.4281 -305.846 65.4281H-276.003C-266.751 65.4281 -259.217 72.9475 -259.217 82.1805V111.965ZM-201.908 66.9527L-201.908 169.163C-201.908 170.004 -202.592 170.687 -203.436 170.687H-233.279C-242.53 170.687 -250.064 163.174 -250.064 153.935L-250.064 66.9527C-250.064 66.1111 -249.38 65.4281 -248.536 65.4281H-203.436C-202.592 65.4281 -201.908 66.1111 -201.908 66.9527ZM84.6261 124.15V153.935C84.6261 163.174 77.0921 170.687 67.8409 170.687H37.9977C37.1545 170.687 36.4701 170.004 36.4701 169.163V124.15C36.4701 123.333 37.1178 122.662 37.9244 122.625H83.0985C83.9418 122.625 84.6261 123.308 84.6261 124.15ZM141.935 66.9527V96.7375C141.935 105.971 134.401 113.49 125.15 113.49H37.9977C37.1545 113.49 36.4701 112.807 36.4701 111.965V66.9527C36.4701 66.1111 37.1545 65.428 37.9977 65.428H140.408C141.251 65.428 141.935 66.1111 141.935 66.9527ZM-29.9864 111.965C-29.9864 112.807 -30.6707 113.49 -31.514 113.49H-61.3571C-70.6082 113.49 -78.1423 105.971 -78.1423 96.7375V66.9527C-78.1423 66.1111 -77.4579 65.4281 -76.6147 65.4281H-46.7716C-37.5205 65.4281 -29.9864 72.9475 -29.9864 82.1805V111.965ZM27.3229 66.9527V169.163C27.3229 170.004 26.6386 170.687 25.7953 170.687H-4.04773C-13.2988 170.687 -20.833 163.174 -20.833 153.935V66.9527C-20.833 66.1111 -20.1487 65.4281 -19.3054 65.4281H25.7953C26.6386 65.4281 27.3229 66.1111 27.3229 66.9527ZM313.857 124.15V153.935C313.857 163.174 306.323 170.687 297.072 170.687H267.229C266.386 170.687 265.701 170.004 265.701 169.163V124.15C265.701 123.333 266.349 122.662 267.155 122.625H312.33C313.173 122.625 313.857 123.308 313.857 124.15ZM371.166 66.9527V96.7375C371.166 105.971 363.632 113.49 354.381 113.49H267.229C266.386 113.49 265.701 112.807 265.701 111.965V66.9527C265.701 66.1111 266.386 65.428 267.229 65.428L369.639 65.428C370.482 65.428 371.166 66.1111 371.166 66.9527ZM199.245 111.965C199.245 112.807 198.56 113.49 197.717 113.49H167.874C158.623 113.49 151.089 105.971 151.089 96.7375V66.9527C151.089 66.1111 151.773 65.428 152.616 65.428H182.459C191.711 65.428 199.245 72.9474 199.245 82.1805V111.965ZM256.554 66.9527V169.163C256.554 170.004 255.87 170.687 255.026 170.687H225.183C215.932 170.687 208.398 163.174 208.398 153.935V66.9527C208.398 66.1111 209.082 65.4281 209.926 65.4281L255.026 65.4281C255.87 65.4281 256.554 66.1111 256.554 66.9527ZM543.088 124.15V153.935C543.088 163.174 535.554 170.687 526.303 170.687H496.46C495.617 170.687 494.932 170.004 494.932 169.163V124.15C494.932 123.333 495.58 122.662 496.386 122.625L541.561 122.625C542.404 122.625 543.088 123.308 543.088 124.15ZM600.397 66.9526V96.7375C600.397 105.971 592.863 113.49 583.612 113.49L496.46 113.49C495.617 113.49 494.932 112.807 494.932 111.965V66.9527C494.932 66.1111 495.617 65.428 496.46 65.428H598.87C599.713 65.428 600.397 66.1111 600.397 66.9526ZM428.476 111.965C428.476 112.807 427.791 113.49 426.948 113.49H397.105C387.854 113.49 380.32 105.971 380.32 96.7375V66.9527C380.32 66.1111 381.004 65.428 381.847 65.428H411.69C420.942 65.428 428.476 72.9474 428.476 82.1805V111.965ZM485.785 66.9527V169.163C485.785 170.004 485.101 170.687 484.257 170.687H454.414C445.163 170.687 437.629 163.174 437.629 153.935V66.9527C437.629 66.1111 438.313 65.4281 439.157 65.4281H484.257C485.101 65.4281 485.785 66.1111 485.785 66.9527ZM772.319 124.15V153.935C772.319 163.174 764.785 170.687 755.534 170.687H725.691C724.848 170.687 724.163 170.004 724.163 169.163V124.15C724.163 123.333 724.811 122.662 725.617 122.625H770.798C771.641 122.625 772.325 123.308 772.325 124.15H772.319ZM829.628 66.9526V96.7374C829.628 105.97 822.094 113.49 812.843 113.49H725.691C724.848 113.49 724.163 112.807 724.163 111.965V66.9526C724.163 66.1111 724.848 65.428 725.691 65.428H828.101C828.944 65.428 829.628 66.1111 829.628 66.9526ZM657.707 111.965C657.707 112.807 657.022 113.49 656.179 113.49H626.336C617.085 113.49 609.551 105.971 609.551 96.7375V66.9526C609.551 66.1111 610.235 65.428 611.078 65.428H640.922C650.173 65.428 657.707 72.9474 657.707 82.1805V111.965ZM715.016 66.9526V169.163C715.016 170.004 714.332 170.687 713.488 170.687H683.645C674.394 170.687 666.86 163.174 666.86 153.935V66.9526C666.86 66.1111 667.544 65.428 668.388 65.428H713.488C714.332 65.428 715.016 66.1111 715.016 66.9526ZM-144.605 -47.436V-17.6511C-144.605 -8.41197 -152.139 -0.898652 -161.39 -0.898651H-191.233C-192.076 -0.898651 -192.761 -1.58172 -192.761 -2.42331V-47.436C-192.761 -48.2532 -192.113 -48.924 -191.307 -48.9606H-146.133C-145.289 -48.9606 -144.605 -48.2776 -144.605 -47.436ZM-87.2957 -104.633V-74.8485C-87.2957 -65.6154 -94.8298 -58.0961 -104.081 -58.0961L-191.233 -58.0961C-192.076 -58.0961 -192.761 -58.7791 -192.761 -59.6207V-104.633C-192.761 -105.475 -192.076 -106.158 -191.233 -106.158H-88.8233C-87.98 -106.158 -87.2957 -105.475 -87.2957 -104.633ZM-259.217 -59.6207C-259.217 -58.7791 -259.902 -58.0961 -260.745 -58.0961L-290.588 -58.0961C-299.839 -58.0961 -307.373 -65.6154 -307.373 -74.8485V-104.633C-307.373 -105.475 -306.689 -106.158 -305.846 -106.158H-276.003C-266.751 -106.158 -259.217 -98.6385 -259.217 -89.4055V-59.6207ZM-201.908 -104.633V-2.42331C-201.908 -1.58172 -202.592 -0.898651 -203.436 -0.898651H-233.279C-242.53 -0.89865 -250.064 -8.41197 -250.064 -17.6511L-250.064 -104.633C-250.064 -105.475 -249.38 -106.158 -248.536 -106.158H-203.436C-202.592 -106.158 -201.908 -105.475 -201.908 -104.633ZM84.6261 -47.436L84.6261 -17.6512C84.6261 -8.412 77.092 -0.898682 67.8409 -0.898682H37.9977C37.1545 -0.898682 36.4701 -1.58172 36.4701 -2.42331V-47.436C36.4701 -48.2532 37.1178 -48.924 37.9244 -48.9606H83.0985C83.9417 -48.9606 84.6261 -48.2776 84.6261 -47.436ZM141.935 -104.633L141.935 -74.8485C141.935 -65.6155 134.401 -58.0961 125.15 -58.0961L37.9977 -58.0961C37.1545 -58.0961 36.4701 -58.7791 36.4701 -59.6207V-104.633C36.4701 -105.475 37.1545 -106.158 37.9977 -106.158L140.408 -106.158C141.251 -106.158 141.935 -105.475 141.935 -104.633ZM-29.9864 -59.6207C-29.9864 -58.7791 -30.6708 -58.0961 -31.514 -58.0961H-61.3571C-70.6082 -58.0961 -78.1423 -65.6154 -78.1423 -74.8485V-104.633C-78.1423 -105.475 -77.4579 -106.158 -76.6147 -106.158L-46.7716 -106.158C-37.5205 -106.158 -29.9864 -98.6386 -29.9864 -89.4055V-59.6207ZM27.3229 -104.633V-2.42331C27.3229 -1.58172 26.6386 -0.898682 25.7953 -0.898682H-4.04776C-13.2989 -0.898681 -20.833 -8.41197 -20.833 -17.6511V-104.633C-20.833 -105.475 -20.1487 -106.158 -19.3054 -106.158H25.7953C26.6386 -106.158 27.3229 -105.475 27.3229 -104.633ZM313.857 -47.436V-17.6512C313.857 -8.412 306.323 -0.898682 297.072 -0.898682H267.229C266.386 -0.898682 265.701 -1.58175 265.701 -2.42334L265.701 -47.436C265.701 -48.2532 266.349 -48.924 267.155 -48.9606H312.329C313.173 -48.9606 313.857 -48.2776 313.857 -47.436ZM371.166 -104.633V-74.8485C371.166 -65.6155 363.632 -58.0961 354.381 -58.0961H267.229C266.386 -58.0961 265.701 -58.7791 265.701 -59.6207V-104.633C265.701 -105.475 266.386 -106.158 267.229 -106.158L369.639 -106.158C370.482 -106.158 371.166 -105.475 371.166 -104.633ZM199.245 -59.6207C199.245 -58.7791 198.56 -58.0961 197.717 -58.0961H167.874C158.623 -58.0961 151.089 -65.6155 151.089 -74.8485V-104.633C151.089 -105.475 151.773 -106.158 152.616 -106.158H182.459C191.711 -106.158 199.245 -98.6386 199.245 -89.4055V-59.6207ZM256.554 -104.633L256.554 -2.42334C256.554 -1.58175 255.87 -0.898682 255.026 -0.898682H225.183C215.932 -0.898681 208.398 -8.412 208.398 -17.6512V-104.633C208.398 -105.475 209.082 -106.158 209.926 -106.158H255.026C255.87 -106.158 256.554 -105.475 256.554 -104.633ZM543.088 -47.436V-17.6512C543.088 -8.41203 535.554 -0.898713 526.303 -0.898712H496.46C495.617 -0.898712 494.932 -1.58178 494.932 -2.42337V-47.436C494.932 -48.2532 495.58 -48.924 496.386 -48.9606H541.56C542.404 -48.9606 543.088 -48.2776 543.088 -47.436ZM600.397 -104.633V-74.8486C600.397 -65.6155 592.863 -58.0961 583.612 -58.0961H496.46C495.617 -58.0961 494.932 -58.7791 494.932 -59.6207V-104.633C494.932 -105.475 495.617 -106.158 496.46 -106.158H598.87C599.713 -106.158 600.397 -105.475 600.397 -104.633ZM428.476 -59.6207C428.476 -58.7791 427.791 -58.0961 426.948 -58.0961L397.105 -58.0961C387.854 -58.0961 380.32 -65.6155 380.32 -74.8485V-104.633C380.32 -105.475 381.004 -106.158 381.847 -106.158H411.69C420.942 -106.158 428.476 -98.6386 428.476 -89.4055V-59.6207ZM485.785 -104.633V-2.42337C485.785 -1.58178 485.101 -0.898712 484.257 -0.898712H454.414C445.163 -0.898711 437.629 -8.41203 437.629 -17.6512V-104.633C437.629 -105.475 438.313 -106.158 439.157 -106.158L484.257 -106.158C485.101 -106.158 485.785 -105.475 485.785 -104.633ZM772.319 -47.4361V-17.6512C772.319 -8.41203 764.785 -0.898743 755.534 -0.898743H725.691C724.848 -0.898743 724.163 -1.58178 724.163 -2.42337V-47.4361C724.163 -48.2532 724.811 -48.9241 725.617 -48.9606H770.798C771.641 -48.9606 772.325 -48.2777 772.325 -47.4361H772.319ZM829.628 -104.633V-74.8486C829.628 -65.6155 822.094 -58.0962 812.843 -58.0962L725.691 -58.0962C724.848 -58.0962 724.163 -58.7792 724.163 -59.6208V-104.633C724.163 -105.475 724.848 -106.158 725.691 -106.158L828.101 -106.158C828.944 -106.158 829.628 -105.475 829.628 -104.633ZM657.707 -59.6207C657.707 -58.7792 657.022 -58.0962 656.179 -58.0962H626.336C617.085 -58.0962 609.551 -65.6155 609.551 -74.8486V-104.633C609.551 -105.475 610.235 -106.158 611.078 -106.158L640.922 -106.158C650.173 -106.158 657.707 -98.6386 657.707 -89.4055V-59.6207ZM715.016 -104.633V-2.42337C715.016 -1.58178 714.332 -0.898743 713.488 -0.898743H683.645C674.394 -0.898742 666.86 -8.41203 666.86 -17.6512V-104.633C666.86 -105.475 667.544 -106.158 668.388 -106.158H713.488C714.332 -106.158 715.016 -105.475 715.016 -104.633ZM-144.605 -219.022V-189.237C-144.605 -179.998 -152.139 -172.485 -161.39 -172.485H-191.233C-192.077 -172.485 -192.761 -173.168 -192.761 -174.009V-219.022C-192.761 -219.839 -192.113 -220.51 -191.307 -220.547L-146.133 -220.547C-145.289 -220.547 -144.605 -219.864 -144.605 -219.022ZM-87.2957 -276.219V-246.435C-87.2957 -237.202 -94.8298 -229.682 -104.081 -229.682L-191.233 -229.682C-192.077 -229.682 -192.761 -230.365 -192.761 -231.207V-276.219C-192.761 -277.061 -192.077 -277.744 -191.233 -277.744L-88.8233 -277.744C-87.98 -277.744 -87.2957 -277.061 -87.2957 -276.219ZM-259.217 -231.207C-259.217 -230.365 -259.902 -229.682 -260.745 -229.682H-290.588C-299.839 -229.682 -307.373 -237.201 -307.373 -246.435V-276.219C-307.373 -277.061 -306.689 -277.744 -305.846 -277.744L-276.003 -277.744C-266.751 -277.744 -259.217 -270.225 -259.217 -260.992V-231.207ZM-201.908 -276.219V-174.009C-201.908 -173.168 -202.592 -172.485 -203.436 -172.485L-233.279 -172.485C-242.53 -172.485 -250.064 -179.998 -250.064 -189.237L-250.064 -276.219C-250.064 -277.061 -249.38 -277.744 -248.536 -277.744L-203.436 -277.744C-202.593 -277.744 -201.908 -277.061 -201.908 -276.219ZM84.6261 -219.022V-189.237C84.6261 -179.998 77.092 -172.485 67.8409 -172.485H37.9977C37.1545 -172.485 36.4701 -173.168 36.4701 -174.009V-219.022C36.4701 -219.839 37.1178 -220.51 37.9244 -220.547L83.0985 -220.547C83.9417 -220.547 84.6261 -219.864 84.6261 -219.022ZM141.935 -276.219V-246.435C141.935 -237.202 134.401 -229.682 125.15 -229.682L37.9977 -229.682C37.1545 -229.682 36.4701 -230.365 36.4701 -231.207V-276.219C36.4701 -277.061 37.1545 -277.744 37.9977 -277.744L140.408 -277.744C141.251 -277.744 141.935 -277.061 141.935 -276.219ZM-29.9864 -231.207C-29.9864 -230.365 -30.6708 -229.682 -31.514 -229.682L-61.3571 -229.682C-70.6082 -229.682 -78.1423 -237.202 -78.1423 -246.435V-276.219C-78.1423 -277.061 -77.4579 -277.744 -76.6147 -277.744L-46.7716 -277.744C-37.5205 -277.744 -29.9864 -270.225 -29.9864 -260.992V-231.207ZM27.3229 -276.219V-174.009C27.3229 -173.168 26.6386 -172.485 25.7953 -172.485H-4.04776C-13.2989 -172.485 -20.833 -179.998 -20.833 -189.237V-276.219C-20.833 -277.061 -20.1487 -277.744 -19.3055 -277.744L25.7953 -277.744C26.6385 -277.744 27.3229 -277.061 27.3229 -276.219ZM313.857 -219.022V-189.237C313.857 -179.998 306.323 -172.485 297.072 -172.485L267.229 -172.485C266.386 -172.485 265.701 -173.168 265.701 -174.009V-219.022C265.701 -219.839 266.349 -220.51 267.155 -220.547L312.329 -220.547C313.173 -220.547 313.857 -219.864 313.857 -219.022ZM371.166 -276.219V-246.435C371.166 -237.202 363.632 -229.682 354.381 -229.682L267.229 -229.682C266.386 -229.682 265.701 -230.365 265.701 -231.207V-276.219C265.701 -277.061 266.386 -277.744 267.229 -277.744L369.639 -277.744C370.482 -277.744 371.166 -277.061 371.166 -276.219ZM199.245 -231.207C199.245 -230.365 198.56 -229.682 197.717 -229.682L167.874 -229.682C158.623 -229.682 151.089 -237.202 151.089 -246.435L151.089 -276.219C151.089 -277.061 151.773 -277.744 152.616 -277.744L182.459 -277.744C191.711 -277.744 199.245 -270.225 199.245 -260.992V-231.207ZM256.554 -276.219V-174.009C256.554 -173.168 255.87 -172.485 255.026 -172.485H225.183C215.932 -172.485 208.398 -179.998 208.398 -189.237L208.398 -276.219C208.398 -277.061 209.082 -277.744 209.926 -277.744L255.026 -277.744C255.87 -277.744 256.554 -277.061 256.554 -276.219ZM543.088 -219.022V-189.237C543.088 -179.998 535.554 -172.485 526.303 -172.485H496.46C495.617 -172.485 494.932 -173.168 494.932 -174.009V-219.022C494.932 -219.839 495.58 -220.51 496.386 -220.547L541.56 -220.547C542.404 -220.547 543.088 -219.864 543.088 -219.022ZM600.397 -276.219V-246.435C600.397 -237.202 592.863 -229.682 583.612 -229.682L496.46 -229.682C495.617 -229.682 494.932 -230.365 494.932 -231.207V-276.219C494.932 -277.061 495.617 -277.744 496.46 -277.744L598.87 -277.744C599.713 -277.744 600.397 -277.061 600.397 -276.219ZM428.476 -231.207C428.476 -230.365 427.791 -229.682 426.948 -229.682L397.105 -229.682C387.854 -229.682 380.32 -237.202 380.32 -246.435V-276.219C380.32 -277.061 381.004 -277.744 381.847 -277.744L411.69 -277.744C420.942 -277.744 428.476 -270.225 428.476 -260.992V-231.207ZM485.785 -276.219L485.785 -174.009C485.785 -173.168 485.101 -172.485 484.257 -172.485L454.414 -172.485C445.163 -172.485 437.629 -179.998 437.629 -189.237V-276.219C437.629 -277.061 438.313 -277.744 439.157 -277.744L484.257 -277.744C485.101 -277.744 485.785 -277.061 485.785 -276.219ZM772.319 -219.022V-189.237C772.319 -179.998 764.785 -172.485 755.534 -172.485L725.691 -172.485C724.848 -172.485 724.163 -173.168 724.163 -174.009V-219.022C724.163 -219.839 724.811 -220.51 725.617 -220.547L770.798 -220.547C771.641 -220.547 772.325 -219.864 772.325 -219.022H772.319ZM829.628 -276.219V-246.435C829.628 -237.202 822.094 -229.682 812.843 -229.682L725.691 -229.682C724.848 -229.682 724.163 -230.365 724.163 -231.207V-276.219C724.163 -277.061 724.848 -277.744 725.691 -277.744L828.101 -277.744C828.944 -277.744 829.628 -277.061 829.628 -276.219ZM657.707 -231.207C657.707 -230.365 657.022 -229.682 656.179 -229.682H626.336C617.085 -229.682 609.551 -237.202 609.551 -246.435V-276.219C609.551 -277.061 610.235 -277.744 611.078 -277.744L640.921 -277.744C650.173 -277.744 657.707 -270.225 657.707 -260.992V-231.207ZM715.016 -276.219L715.016 -174.009C715.016 -173.168 714.332 -172.485 713.488 -172.485H683.645C674.394 -172.485 666.86 -179.998 666.86 -189.237V-276.219C666.86 -277.061 667.544 -277.744 668.388 -277.744L713.488 -277.744C714.332 -277.744 715.016 -277.061 715.016 -276.219Z" stroke="#F1EEEA" stroke-width="2" stroke-miterlimit="10"/>
</svg>
