<?xml version="1.0" encoding="UTF-8"?><svg id="Layer_1" xmlns="http://www.w3.org/2000/svg" viewBox="0 0 2320.49 371.62"><defs><style>.cls-1{fill:#2a3478;}</style></defs><g><path class="cls-1" d="M1039.71,99.59c6.27,0,11.93,.63,19.6,1.73,.98,.15,1.99-.14,2.75-.77,.77-.63,1.24-1.56,1.29-2.55l1.41-27.15c.09-1.74-1.1-3.29-2.81-3.65-6.8-1.43-15.55-2.9-28.95-2.9-38.34,0-60.33,21.86-60.33,59.97v6.74l-25.24,9.76c-1.37,.53-2.27,1.84-2.27,3.31v20.05c0,1.96,1.59,3.54,3.54,3.54h23.97v131.53c0,1.96,1.59,3.54,3.54,3.54h38.09c1.96,0,3.54-1.59,3.54-3.54V167.66h31.32c7.82,0,14.18-6.36,14.18-14.18v-20.05c0-1.96-1.59-3.54-3.54-3.54h-41.95v-4.92c0-17.55,6.74-25.38,21.85-25.38Z"/><path class="cls-1" d="M1158.57,125.66c-54.18,0-87.84,34.6-87.84,90.31s32.84,91.36,87.84,91.36,87.13-35.01,87.13-91.36-33.39-90.31-87.13-90.31Zm42.31,89.95c0,23.65-7.4,51.83-42.66,51.83-28.07,0-42.3-17.44-42.3-51.83,0-23.16,7.34-50.77,42.3-50.77s42.66,27.61,42.66,50.77Z"/><path class="cls-1" d="M1420.63,129.89h-38.09c-1.96,0-3.54,1.59-3.54,3.54v93.82c0,23.34-15.22,38.43-38.77,38.43-18.48,0-27.85-10.55-27.85-31.37v-100.87c0-1.96-1.59-3.54-3.54-3.54h-38.09c-1.96,0-3.54,1.59-3.54,3.54v110.74c0,40.13,20.06,63.15,55.04,63.15,26.22,0,46.87-14.88,57.82-41.23v33.1c0,1.96,1.59,3.54,3.54,3.54h37.03c1.96,0,3.54-1.59,3.54-3.54V133.43c0-1.96-1.59-3.54-3.54-3.54Z"/><path class="cls-1" d="M1550.76,128.13h-6c-24.51,0-39.21,12.04-48.65,40.85v-35.55c0-1.96-1.59-3.54-3.54-3.54h-35.97c-1.96,0-3.54,1.59-3.54,3.54v165.76c0,1.96,1.59,3.54,3.54,3.54h37.74c1.96,0,3.54-1.59,3.54-3.54v-78.65c0-31.89,11.03-42.66,43.72-42.66h9.17c1.96,0,3.54-1.59,3.54-3.54v-42.68c0-1.96-1.59-3.54-3.54-3.54Z"/><path class="cls-1" d="M1671.47,99.59c6.27,0,11.93,.63,19.61,1.73,.99,.15,1.98-.14,2.75-.77,.77-.63,1.24-1.56,1.29-2.55l1.41-27.15c.09-1.74-1.1-3.29-2.81-3.65-6.79-1.43-15.55-2.9-28.94-2.9-38.34,0-60.33,21.86-60.33,59.97v6.74l-25.24,9.76c-1.37,.53-2.27,1.84-2.27,3.31v20.05c0,1.96,1.59,3.54,3.54,3.54h23.97v131.53c0,1.96,1.59,3.54,3.54,3.54h38.09c1.96,0,3.54-1.59,3.54-3.54V167.66h31.32c7.82,0,14.18-6.36,14.18-14.18v-20.05c0-1.96-1.59-3.54-3.54-3.54h-41.95v-4.92c0-17.55,6.74-25.38,21.85-25.38Z"/><path class="cls-1" d="M1816.82,128.13h-6c-24.51,0-39.21,12.04-48.65,40.85v-35.55c0-1.96-1.59-3.54-3.54-3.54h-35.97c-1.96,0-3.54,1.59-3.54,3.54v165.76c0,1.96,1.59,3.54,3.54,3.54h37.74c1.96,0,3.54-1.59,3.54-3.54v-78.65c0-31.89,11.03-42.66,43.72-42.66h9.17c1.96,0,3.54-1.59,3.54-3.54v-42.68c0-1.96-1.59-3.54-3.54-3.54Z"/><path class="cls-1" d="M1917.34,125.66c-54.18,0-87.84,34.6-87.84,90.31s32.84,91.36,87.84,91.36,87.13-35.01,87.13-91.36-33.39-90.31-87.13-90.31Zm42.31,89.95c0,23.65-7.4,51.83-42.66,51.83-28.07,0-42.31-17.44-42.31-51.83,0-23.16,7.34-50.77,42.31-50.77s42.66,27.61,42.66,50.77Z"/><path class="cls-1" d="M2129.31,125.66c-26.19,0-46.8,14.45-57.82,40.07v-32.3c0-1.96-1.59-3.54-3.54-3.54h-37.03c-1.96,0-3.54,1.59-3.54,3.54v165.76c0,1.96,1.59,3.54,3.54,3.54h37.74c1.96,0,3.54-1.59,3.54-3.54v-93.82c0-22.98,15.58-38.43,38.78-38.43,18.71,0,28.2,10.55,28.2,31.37v100.87c0,1.96,1.59,3.54,3.54,3.54h37.74c1.96,0,3.54-1.59,3.54-3.54v-110.74c0-39.91-19.93-62.79-54.68-62.79Z"/><path class="cls-1" d="M2315.87,263.45c-.14-1.03-.72-1.95-1.6-2.51s-1.95-.7-2.95-.41c-8.05,2.45-15.04,4.08-22.95,4.08-13.69,0-19.03-5.93-19.03-21.15v-75.81h34.49c7.82,0,14.18-6.36,14.18-14.18v-20.05c0-1.96-1.59-3.54-3.54-3.54h-45.13v-41.25c0-1.96-1.59-3.54-3.54-3.54h-38.09c-1.96,0-3.54,1.59-3.54,3.54v42.51l-21.2,9.69c-1.26,.57-2.07,1.83-2.07,3.22v20.05c0,1.96,1.59,3.54,3.54,3.54h19.73v81.1c0,36.67,20.71,58.56,55.39,58.56,17.53,0,26.6-2.44,38.45-6.16,1.65-.52,2.68-2.15,2.45-3.86l-4.58-33.86Z"/></g><g><path class="cls-1" d="M573.55,207.31v105.16c0,32.62-26.54,59.14-59.14,59.14h-105.16c-2.97,0-5.38-2.41-5.38-5.38V207.31c0-2.88,2.28-5.25,5.12-5.38h159.18c2.97,0,5.38,2.41,5.38,5.38Z"/><path class="cls-1" d="M775.49,5.38V110.54c0,32.6-26.54,59.14-59.14,59.14H409.25c-2.97,0-5.38-2.41-5.38-5.38V5.38c0-2.97,2.41-5.38,5.38-5.38h360.87c2.97,0,5.38,2.41,5.38,5.38Z"/><path class="cls-1" d="M169.68,164.3c0,2.97-2.41,5.38-5.38,5.38H59.14C26.54,169.68,0,143.14,0,110.54V5.38C0,2.41,2.41,0,5.38,0H110.54c32.6,0,59.14,26.54,59.14,59.14v105.16Z"/><path class="cls-1" d="M371.62,5.38V366.24c0,2.97-2.41,5.38-5.38,5.38h-105.16c-32.6,0-59.14-26.52-59.14-59.14V5.38c0-2.97,2.41-5.38,5.38-5.38h158.93c2.97,0,5.38,2.41,5.38,5.38Z"/></g></svg>