<svg width="64" height="31" viewBox="0 0 64 31" fill="none" xmlns="http://www.w3.org/2000/svg">
  <path d="M47.3355 17.1035V25.7793C47.3355 28.4708 45.1455 30.6585 42.4545 30.6585H33.7755C33.5305 30.6585 33.332 30.4596 33.332 30.2152V17.1035C33.332 16.8656 33.52 16.6707 33.7545 16.6602H46.8915C47.1365 16.6602 47.335 16.8591 47.335 17.1035H47.3355Z" fill="#F05D5D" />
  <path d="M64.001 0.443338V9.11916C64.001 11.8087 61.811 13.9984 59.12 13.9984H33.7755C33.5305 13.9984 33.332 13.7994 33.332 13.555V0.443338C33.332 0.198427 33.531 0 33.7755 0H63.557C63.802 0 64.0005 0.198927 64.0005 0.443338H64.001Z" fill="#7F7198" />
  <path d="M14.0035 13.5545C14.0035 13.7994 13.8045 13.9979 13.56 13.9979H4.88099C2.19049 13.9979 0 11.8087 0 9.11866V0.443338C0 0.198427 0.198499 0 0.443499 0H9.12248C11.813 0 14.0035 2.1892 14.0035 4.87921V13.555V13.5545Z" fill="#58C3C4" />
  <path d="M30.6695 0.443338V30.2139C30.6695 30.4589 30.4705 30.6573 30.226 30.6573H21.547C18.8565 30.6573 16.666 28.4696 16.666 25.7781V0.443338C16.666 0.198427 16.865 0 17.1095 0H30.2255C30.4705 0 30.669 0.198927 30.669 0.443338H30.6695Z" fill="#FFC43E" />
</svg>
