<?xml version="1.0" encoding="UTF-8"?><svg id="Layer_1" xmlns="http://www.w3.org/2000/svg" viewBox="0 0 1280 613.38"><defs><style>.cls-1{fill:#2a3478;}</style></defs><path class="cls-1" d="M946.69,342.19v173.58c0,53.85-43.8,97.62-97.62,97.62h-173.58c-4.9,0-8.87-3.98-8.87-8.87V342.19c0-4.76,3.76-8.66,8.45-8.87h262.74c4.9,0,8.87,3.98,8.87,8.87Z"/><path class="cls-1" d="M1280,8.87V182.45c0,53.81-43.8,97.62-97.62,97.62h-506.89c-4.9,0-8.87-3.98-8.87-8.87V8.87c0-4.9,3.98-8.87,8.87-8.87h595.63c4.9,0,8.87,3.98,8.87,8.87Z"/><path class="cls-1" d="M280.07,271.19c0,4.9-3.98,8.87-8.87,8.87H97.62C43.8,280.07,0,236.26,0,182.45V8.87C0,3.98,3.97,0,8.87,0H182.45c53.81,0,97.62,43.8,97.62,97.62v173.58Z"/><path class="cls-1" d="M613.38,8.87V604.5c0,4.9-3.98,8.87-8.87,8.87h-173.58c-53.81,0-97.62-43.77-97.62-97.62V8.87c0-4.9,3.98-8.87,8.87-8.87h262.32c4.9,0,8.87,3.98,8.87,8.87Z"/></svg>