<?xml version="1.0" encoding="UTF-8"?><svg id="Layer_1" xmlns="http://www.w3.org/2000/svg" viewBox="0 0 1644.91 290.68"><defs><style>.cls-1{fill:#2a3478;}</style></defs><path class="cls-1" d="M113.07,42.22c7.49,0,14.27,.76,23.44,2.07,1.18,.18,2.37-.17,3.29-.92,.92-.76,1.48-1.87,1.54-3.06l1.69-32.48c.11-2.08-1.32-3.94-3.36-4.37-8.13-1.71-18.6-3.47-34.62-3.47C59.2,0,32.9,26.14,32.9,71.73v8.06L2.71,91.46c-1.64,.63-2.71,2.2-2.71,3.95v23.98c0,2.34,1.9,4.24,4.24,4.24h28.66v157.32c0,2.34,1.9,4.24,4.24,4.24h45.56c2.34,0,4.24-1.9,4.24-4.24V123.64h37.46c9.35,0,16.96-7.61,16.96-16.96v-23.98c0-2.34-1.9-4.24-4.24-4.24h-50.17v-5.88c0-20.99,8.06-30.35,26.13-30.35Z"/><path class="cls-1" d="M255.23,73.4c-64.8,0-105.05,41.39-105.05,108.01s39.27,109.27,105.05,109.27,104.21-41.87,104.21-109.27-39.93-108.01-104.21-108.01Zm50.6,107.59c0,28.28-8.85,61.99-51.02,61.99-33.57,0-50.6-20.86-50.6-61.99,0-27.7,8.78-60.72,50.6-60.72s51.02,33.02,51.02,60.72Z"/><path class="cls-1" d="M568.66,78.46h-45.56c-2.34,0-4.24,1.9-4.24,4.24v112.21c0,27.92-18.2,45.96-46.38,45.96-22.1,0-33.31-12.62-33.31-37.52V82.7c0-2.34-1.9-4.24-4.24-4.24h-45.56c-2.34,0-4.24,1.9-4.24,4.24V215.15c0,48,23.99,75.53,65.83,75.53,31.36,0,56.06-17.8,69.16-49.31v39.59c0,2.34,1.9,4.24,4.24,4.24h44.29c2.34,0,4.24-1.9,4.24-4.24V82.7c0-2.34-1.9-4.24-4.24-4.24Z"/><path class="cls-1" d="M724.29,76.35h-7.17c-29.32,0-46.89,14.39-58.19,48.86v-42.51c0-2.34-1.9-4.24-4.24-4.24h-43.03c-2.34,0-4.24,1.9-4.24,4.24v198.26c0,2.34,1.9,4.24,4.24,4.24h45.13c2.34,0,4.24-1.9,4.24-4.24v-94.07c0-38.14,13.19-51.02,52.29-51.02h10.97c2.34,0,4.24-1.9,4.24-4.24v-51.04c0-2.34-1.9-4.24-4.24-4.24Z"/><path class="cls-1" d="M868.67,42.22c7.49,0,14.27,.76,23.45,2.07,1.18,.18,2.37-.17,3.29-.92,.92-.76,1.48-1.87,1.54-3.06l1.68-32.48c.11-2.08-1.32-3.94-3.36-4.37-8.13-1.71-18.59-3.47-34.62-3.47-45.85,0-72.15,26.14-72.15,71.73v8.06l-30.19,11.67c-1.64,.63-2.71,2.2-2.71,3.95v23.98c0,2.34,1.9,4.24,4.24,4.24h28.67v157.32c0,2.34,1.9,4.24,4.24,4.24h45.56c2.34,0,4.24-1.9,4.24-4.24V123.64h37.46c9.35,0,16.96-7.61,16.96-16.96v-23.98c0-2.34-1.9-4.24-4.24-4.24h-50.18v-5.88c0-20.99,8.06-30.35,26.13-30.35Z"/><path class="cls-1" d="M1042.51,76.35h-7.17c-29.32,0-46.89,14.39-58.19,48.86v-42.51c0-2.34-1.9-4.24-4.24-4.24h-43.03c-2.34,0-4.24,1.9-4.24,4.24v198.26c0,2.34,1.9,4.24,4.24,4.24h45.13c2.34,0,4.24-1.9,4.24-4.24v-94.07c0-38.14,13.19-51.02,52.29-51.02h10.97c2.34,0,4.24-1.9,4.24-4.24v-51.04c0-2.34-1.9-4.24-4.24-4.24Z"/><path class="cls-1" d="M1162.73,73.4c-64.8,0-105.06,41.39-105.06,108.01s39.27,109.27,105.06,109.27,104.21-41.87,104.21-109.27-39.93-108.01-104.21-108.01Zm50.6,107.59c0,28.28-8.85,61.99-51.02,61.99-33.58,0-50.6-20.86-50.6-61.99,0-27.7,8.78-60.72,50.6-60.72s51.02,33.02,51.02,60.72Z"/><path class="cls-1" d="M1416.26,73.4c-31.32,0-55.97,17.28-69.16,47.93v-38.63c0-2.34-1.9-4.24-4.24-4.24h-44.29c-2.34,0-4.24,1.9-4.24,4.24v198.26c0,2.34,1.9,4.24,4.24,4.24h45.13c2.34,0,4.24-1.9,4.24-4.24v-112.21c0-27.49,18.64-45.96,46.38-45.96,22.38,0,33.72,12.62,33.72,37.52v120.64c0,2.34,1.9,4.24,4.24,4.24h45.14c2.34,0,4.24-1.9,4.24-4.24V148.5c0-47.73-23.84-75.1-65.4-75.1Z"/><path class="cls-1" d="M1639.39,238.2c-.17-1.23-.87-2.33-1.91-3-1.05-.67-2.33-.84-3.52-.49-9.63,2.93-17.98,4.88-27.45,4.88-16.38,0-22.76-7.09-22.76-25.29V123.64h41.25c9.35,0,16.96-7.61,16.96-16.96v-23.98c0-2.34-1.9-4.24-4.24-4.24h-53.97V29.12c0-2.34-1.9-4.24-4.24-4.24h-45.56c-2.34,0-4.24,1.9-4.24,4.24v50.85l-25.36,11.59c-1.51,.69-2.48,2.19-2.48,3.85v23.98c0,2.34,1.9,4.24,4.24,4.24h23.6v97c0,43.86,24.77,70.04,66.25,70.04,20.97,0,31.82-2.92,45.98-7.37,1.97-.62,3.21-2.57,2.93-4.61l-5.48-40.49Z"/></svg>